<mxfile modified="2022-08-03T09:02:27.115Z" host="app.diagrams.net" agent="5.0 (Windows NT 10.0; Win64; x64) AppleWebKit/537.36 (KHTML, like Gecko) Chrome/103.0.0.0 Safari/537.36" etag="cgTHMRjDpa5sSaIjZvY1" version="20.2.1" type="github" pages="3">
  <diagram id="Ht1M8jgEwFfnCIfOTk4-" name="As-Is">
    <mxGraphModel dx="2266" dy="1041" grid="1" gridSize="10" guides="1" tooltips="1" connect="1" arrows="1" fold="1" page="1" pageScale="1" pageWidth="1169" pageHeight="827" math="0" shadow="0">
      <root>
        <mxCell id="0" />
        <mxCell id="1" parent="0" />
        <mxCell id="-QjtrjUzRDEMRZ5MF8oH-47" value="원자재(팜유) 시황 예측 AWS Architecture" style="text;html=1;resizable=0;points=[];autosize=1;align=left;verticalAlign=top;spacingTop=-4;fontSize=30;fontStyle=1;labelBackgroundColor=none;" parent="1" vertex="1">
          <mxGeometry x="36.5" y="26.5" width="590" height="40" as="geometry" />
        </mxCell>
        <mxCell id="-QjtrjUzRDEMRZ5MF8oH-48" value="Author: 디지털인프라팀" style="text;html=1;resizable=0;points=[];autosize=1;align=left;verticalAlign=top;spacingTop=-4;fontSize=16;labelBackgroundColor=none;" parent="1" vertex="1">
          <mxGeometry x="36.5" y="76.5" width="190" height="30" as="geometry" />
        </mxCell>
        <mxCell id="SCVMTBWpLvtzJIhz15lM-1" value="" style="line;strokeWidth=2;html=1;fontSize=14;labelBackgroundColor=none;" parent="1" vertex="1">
          <mxGeometry x="32.5" y="101.5" width="1060" height="10" as="geometry" />
        </mxCell>
        <mxCell id="1dBTJliTiQG94aDny_BC-19" value="AWS Cloud" style="points=[[0,0],[0.25,0],[0.5,0],[0.75,0],[1,0],[1,0.25],[1,0.5],[1,0.75],[1,1],[0.75,1],[0.5,1],[0.25,1],[0,1],[0,0.75],[0,0.5],[0,0.25]];outlineConnect=0;gradientColor=none;html=1;whiteSpace=wrap;fontSize=12;fontStyle=0;shape=mxgraph.aws4.group;grIcon=mxgraph.aws4.group_aws_cloud_alt;strokeColor=#232F3E;fillColor=none;verticalAlign=top;align=left;spacingLeft=30;fontColor=#232F3E;dashed=0;labelBackgroundColor=none;container=1;pointerEvents=0;collapsible=0;recursiveResize=0;" parent="1" vertex="1">
          <mxGeometry x="33" y="150" width="1950" height="570" as="geometry" />
        </mxCell>
        <mxCell id="dCYjzD_zUEwOEs_KfjNQ-2" value="데이터 적제" style="swimlane;startSize=40;fontSize=16;" parent="1dBTJliTiQG94aDny_BC-19" vertex="1">
          <mxGeometry x="620" y="30" width="289" height="540" as="geometry">
            <mxRectangle x="731" y="30" width="120" height="30" as="alternateBounds" />
          </mxGeometry>
        </mxCell>
        <mxCell id="6hlHMrz7loX8VQzPJCg0-5" value="4" style="rounded=1;whiteSpace=wrap;html=1;fillColor=#007CBD;strokeColor=none;fontColor=#FFFFFF;fontStyle=1;fontSize=22;labelBackgroundColor=none;" parent="dCYjzD_zUEwOEs_KfjNQ-2" vertex="1">
          <mxGeometry x="147" y="93" width="40" height="38" as="geometry" />
        </mxCell>
        <mxCell id="6hlHMrz7loX8VQzPJCg0-10" style="edgeStyle=orthogonalEdgeStyle;rounded=0;orthogonalLoop=1;jettySize=auto;html=1;entryX=0;entryY=0.5;entryDx=0;entryDy=0;entryPerimeter=0;fontSize=16;" parent="dCYjzD_zUEwOEs_KfjNQ-2" source="1dBTJliTiQG94aDny_BC-4" edge="1">
          <mxGeometry relative="1" as="geometry">
            <Array as="points">
              <mxPoint x="99" y="169" />
            </Array>
            <mxPoint x="186" y="169.5" as="targetPoint" />
          </mxGeometry>
        </mxCell>
        <mxCell id="1dBTJliTiQG94aDny_BC-4" value="AWS S3&lt;br&gt;Raw Data" style="sketch=0;points=[[0,0,0],[0.25,0,0],[0.5,0,0],[0.75,0,0],[1,0,0],[0,1,0],[0.25,1,0],[0.5,1,0],[0.75,1,0],[1,1,0],[0,0.25,0],[0,0.5,0],[0,0.75,0],[1,0.25,0],[1,0.5,0],[1,0.75,0]];outlineConnect=0;fontColor=#232F3E;gradientColor=#60A337;gradientDirection=north;fillColor=#277116;strokeColor=#ffffff;dashed=0;verticalLabelPosition=bottom;verticalAlign=top;align=center;html=1;fontSize=12;fontStyle=0;aspect=fixed;shape=mxgraph.aws4.resourceIcon;resIcon=mxgraph.aws4.s3;" parent="dCYjzD_zUEwOEs_KfjNQ-2" vertex="1">
          <mxGeometry x="60" y="249" width="78" height="78" as="geometry" />
        </mxCell>
        <mxCell id="1dBTJliTiQG94aDny_BC-61" value="데이터 수집" style="swimlane;startSize=40;fontSize=16;" parent="1dBTJliTiQG94aDny_BC-19" vertex="1">
          <mxGeometry x="1" y="30" width="619" height="540" as="geometry">
            <mxRectangle x="-30" y="1060" width="120" height="30" as="alternateBounds" />
          </mxGeometry>
        </mxCell>
        <mxCell id="6hlHMrz7loX8VQzPJCg0-3" value="2" style="rounded=1;whiteSpace=wrap;html=1;fillColor=#007CBD;strokeColor=none;fontColor=#FFFFFF;fontStyle=1;fontSize=22;labelBackgroundColor=none;" parent="1dBTJliTiQG94aDny_BC-61" vertex="1">
          <mxGeometry x="426" y="102" width="40" height="38" as="geometry" />
        </mxCell>
        <mxCell id="CtUr043-NP_PtcqY4t4r-6" value="Crawling &lt;b&gt;Weather &lt;/b&gt;Data" style="sketch=0;points=[[0,0,0],[0.25,0,0],[0.5,0,0],[0.75,0,0],[1,0,0],[0,1,0],[0.25,1,0],[0.5,1,0],[0.75,1,0],[1,1,0],[0,0.25,0],[0,0.5,0],[0,0.75,0],[1,0.25,0],[1,0.5,0],[1,0.75,0]];outlineConnect=0;fontColor=#232F3E;gradientColor=#F78E04;gradientDirection=north;fillColor=#D05C17;strokeColor=#ffffff;dashed=0;verticalLabelPosition=bottom;verticalAlign=top;align=center;html=1;fontSize=12;fontStyle=0;aspect=fixed;shape=mxgraph.aws4.resourceIcon;resIcon=mxgraph.aws4.lambda;" parent="1dBTJliTiQG94aDny_BC-61" vertex="1">
          <mxGeometry x="306" y="430" width="78" height="78" as="geometry" />
        </mxCell>
        <mxCell id="CtUr043-NP_PtcqY4t4r-11" style="edgeStyle=orthogonalEdgeStyle;rounded=0;orthogonalLoop=1;jettySize=auto;html=1;entryX=0;entryY=0.5;entryDx=0;entryDy=0;entryPerimeter=0;fontSize=11;" parent="1dBTJliTiQG94aDny_BC-61" source="dCYjzD_zUEwOEs_KfjNQ-6" target="CtUr043-NP_PtcqY4t4r-5" edge="1">
          <mxGeometry relative="1" as="geometry">
            <Array as="points">
              <mxPoint x="266" y="287" />
              <mxPoint x="266" y="355" />
            </Array>
          </mxGeometry>
        </mxCell>
        <mxCell id="CtUr043-NP_PtcqY4t4r-12" style="edgeStyle=orthogonalEdgeStyle;rounded=0;orthogonalLoop=1;jettySize=auto;html=1;entryX=0;entryY=0.5;entryDx=0;entryDy=0;entryPerimeter=0;fontSize=11;" parent="1dBTJliTiQG94aDny_BC-61" source="dCYjzD_zUEwOEs_KfjNQ-6" target="CtUr043-NP_PtcqY4t4r-6" edge="1">
          <mxGeometry relative="1" as="geometry">
            <Array as="points">
              <mxPoint x="266" y="287" />
              <mxPoint x="266" y="469" />
            </Array>
          </mxGeometry>
        </mxCell>
        <mxCell id="dCYjzD_zUEwOEs_KfjNQ-6" value="AWS EventBridge" style="sketch=0;points=[[0,0,0],[0.25,0,0],[0.5,0,0],[0.75,0,0],[1,0,0],[0,1,0],[0.25,1,0],[0.5,1,0],[0.75,1,0],[1,1,0],[0,0.25,0],[0,0.5,0],[0,0.75,0],[1,0.25,0],[1,0.5,0],[1,0.75,0]];outlineConnect=0;fontColor=#232F3E;gradientColor=#FF4F8B;gradientDirection=north;fillColor=#BC1356;strokeColor=#ffffff;dashed=0;verticalLabelPosition=bottom;verticalAlign=top;align=center;html=1;fontSize=12;fontStyle=0;aspect=fixed;shape=mxgraph.aws4.resourceIcon;resIcon=mxgraph.aws4.eventbridge;" parent="1dBTJliTiQG94aDny_BC-61" vertex="1">
          <mxGeometry x="156" y="248" width="78" height="78" as="geometry" />
        </mxCell>
        <mxCell id="dCYjzD_zUEwOEs_KfjNQ-7" value="Turn on Ec2 Instance" style="outlineConnect=0;fontColor=#232F3E;gradientColor=none;fillColor=#D05C17;strokeColor=none;dashed=0;verticalLabelPosition=bottom;verticalAlign=top;align=center;html=1;fontSize=12;fontStyle=0;aspect=fixed;pointerEvents=1;shape=mxgraph.aws4.lambda_function;labelBackgroundColor=#ffffff;spacingTop=7;" parent="1dBTJliTiQG94aDny_BC-61" vertex="1">
          <mxGeometry x="306" y="60" width="78" height="78" as="geometry" />
        </mxCell>
        <mxCell id="dCYjzD_zUEwOEs_KfjNQ-8" style="edgeStyle=orthogonalEdgeStyle;rounded=0;orthogonalLoop=1;jettySize=auto;html=1;exitX=1;exitY=0.5;exitDx=0;exitDy=0;exitPerimeter=0;" parent="1dBTJliTiQG94aDny_BC-61" source="dCYjzD_zUEwOEs_KfjNQ-6" target="dCYjzD_zUEwOEs_KfjNQ-7" edge="1">
          <mxGeometry relative="1" as="geometry">
            <Array as="points">
              <mxPoint x="266" y="287" />
              <mxPoint x="266" y="100" />
            </Array>
          </mxGeometry>
        </mxCell>
        <mxCell id="dCYjzD_zUEwOEs_KfjNQ-9" style="edgeStyle=orthogonalEdgeStyle;rounded=0;orthogonalLoop=1;jettySize=auto;html=1;entryX=0;entryY=0.5;entryDx=0;entryDy=0;entryPerimeter=0;" parent="1dBTJliTiQG94aDny_BC-61" source="dCYjzD_zUEwOEs_KfjNQ-10" target="dCYjzD_zUEwOEs_KfjNQ-6" edge="1">
          <mxGeometry relative="1" as="geometry" />
        </mxCell>
        <mxCell id="dCYjzD_zUEwOEs_KfjNQ-10" value="Event&lt;br&gt;매일 일정 시각" style="sketch=0;outlineConnect=0;fontColor=#232F3E;gradientColor=none;fillColor=#B0084D;strokeColor=none;dashed=0;verticalLabelPosition=bottom;verticalAlign=top;align=center;html=1;fontSize=12;fontStyle=0;aspect=fixed;pointerEvents=1;shape=mxgraph.aws4.event_time_based;" parent="1dBTJliTiQG94aDny_BC-61" vertex="1">
          <mxGeometry x="17" y="248" width="78" height="78" as="geometry" />
        </mxCell>
        <mxCell id="dCYjzD_zUEwOEs_KfjNQ-11" value="Turn off Ec2 Instance" style="outlineConnect=0;fontColor=#232F3E;gradientColor=none;fillColor=#D05C17;strokeColor=none;dashed=0;verticalLabelPosition=bottom;verticalAlign=top;align=center;html=1;fontSize=12;fontStyle=0;aspect=fixed;pointerEvents=1;shape=mxgraph.aws4.lambda_function;labelBackgroundColor=#ffffff;spacingTop=7;" parent="1dBTJliTiQG94aDny_BC-61" vertex="1">
          <mxGeometry x="306" y="182" width="78" height="78" as="geometry" />
        </mxCell>
        <mxCell id="dCYjzD_zUEwOEs_KfjNQ-12" style="edgeStyle=orthogonalEdgeStyle;rounded=0;orthogonalLoop=1;jettySize=auto;html=1;" parent="1dBTJliTiQG94aDny_BC-61" source="dCYjzD_zUEwOEs_KfjNQ-6" target="dCYjzD_zUEwOEs_KfjNQ-11" edge="1">
          <mxGeometry relative="1" as="geometry">
            <Array as="points">
              <mxPoint x="266" y="287" />
              <mxPoint x="266" y="221" />
            </Array>
          </mxGeometry>
        </mxCell>
        <mxCell id="dCYjzD_zUEwOEs_KfjNQ-17" style="edgeStyle=orthogonalEdgeStyle;rounded=0;orthogonalLoop=1;jettySize=auto;html=1;" parent="1dBTJliTiQG94aDny_BC-61" source="dCYjzD_zUEwOEs_KfjNQ-7" edge="1">
          <mxGeometry relative="1" as="geometry">
            <mxPoint x="466" y="160.0256410256411" as="targetPoint" />
            <Array as="points">
              <mxPoint x="416" y="109" />
              <mxPoint x="416" y="160" />
            </Array>
          </mxGeometry>
        </mxCell>
        <mxCell id="dCYjzD_zUEwOEs_KfjNQ-18" style="edgeStyle=orthogonalEdgeStyle;rounded=0;orthogonalLoop=1;jettySize=auto;html=1;" parent="1dBTJliTiQG94aDny_BC-61" source="dCYjzD_zUEwOEs_KfjNQ-11" edge="1">
          <mxGeometry relative="1" as="geometry">
            <mxPoint x="466" y="190.0256410256411" as="targetPoint" />
            <Array as="points">
              <mxPoint x="416" y="231" />
              <mxPoint x="416" y="190" />
            </Array>
          </mxGeometry>
        </mxCell>
        <mxCell id="6hlHMrz7loX8VQzPJCg0-2" value="1" style="rounded=1;whiteSpace=wrap;html=1;fillColor=#007CBD;strokeColor=none;fontColor=#FFFFFF;fontStyle=1;fontSize=22;labelBackgroundColor=none;" parent="1dBTJliTiQG94aDny_BC-61" vertex="1">
          <mxGeometry x="6" y="210" width="40" height="38" as="geometry" />
        </mxCell>
        <mxCell id="6hlHMrz7loX8VQzPJCg0-4" value="3" style="rounded=1;whiteSpace=wrap;html=1;fillColor=#007CBD;strokeColor=none;fontColor=#FFFFFF;fontStyle=1;fontSize=22;labelBackgroundColor=none;" parent="1dBTJliTiQG94aDny_BC-61" vertex="1">
          <mxGeometry x="638" y="212" width="40" height="38" as="geometry" />
        </mxCell>
        <mxCell id="CtUr043-NP_PtcqY4t4r-5" value="Crawling &lt;b&gt;Invesing &lt;/b&gt;Data" style="sketch=0;points=[[0,0,0],[0.25,0,0],[0.5,0,0],[0.75,0,0],[1,0,0],[0,1,0],[0.25,1,0],[0.5,1,0],[0.75,1,0],[1,1,0],[0,0.25,0],[0,0.5,0],[0,0.75,0],[1,0.25,0],[1,0.5,0],[1,0.75,0]];outlineConnect=0;fontColor=#232F3E;gradientColor=#F78E04;gradientDirection=north;fillColor=#D05C17;strokeColor=#ffffff;dashed=0;verticalLabelPosition=bottom;verticalAlign=top;align=center;html=1;fontSize=12;fontStyle=0;aspect=fixed;shape=mxgraph.aws4.resourceIcon;resIcon=mxgraph.aws4.lambda;" parent="1dBTJliTiQG94aDny_BC-61" vertex="1">
          <mxGeometry x="306" y="316" width="78" height="78" as="geometry" />
        </mxCell>
        <mxCell id="CtUr043-NP_PtcqY4t4r-4" value="Crawling &lt;b&gt;Reuter &lt;/b&gt;Data" style="sketch=0;points=[[0,0,0],[0.25,0,0],[0.5,0,0],[0.75,0,0],[1,0,0],[0,1,0],[0.25,1,0],[0.5,1,0],[0.75,1,0],[1,1,0],[0,0.25,0],[0,0.5,0],[0,0.75,0],[1,0.25,0],[1,0.5,0],[1,0.75,0]];outlineConnect=0;fontColor=#232F3E;gradientColor=#F78E04;gradientDirection=north;fillColor=#D05C17;strokeColor=#ffffff;dashed=0;verticalLabelPosition=bottom;verticalAlign=top;align=center;html=1;fontSize=12;fontStyle=0;aspect=fixed;shape=mxgraph.aws4.resourceIcon;resIcon=mxgraph.aws4.ec2;" parent="1dBTJliTiQG94aDny_BC-61" vertex="1">
          <mxGeometry x="466" y="140" width="78" height="78" as="geometry" />
        </mxCell>
        <mxCell id="dCYjzD_zUEwOEs_KfjNQ-34" value="추론 및 시각화" style="swimlane;startSize=40;fontSize=16;align=center;verticalAlign=middle;" parent="1dBTJliTiQG94aDny_BC-19" vertex="1">
          <mxGeometry x="1707" y="30" width="243" height="540" as="geometry">
            <mxRectangle x="731" y="30" width="120" height="30" as="alternateBounds" />
          </mxGeometry>
        </mxCell>
        <mxCell id="FTdMu0rv-jqPg10kDiAU-153" value="7" style="rounded=1;whiteSpace=wrap;html=1;fillColor=#007CBD;strokeColor=none;fontColor=#FFFFFF;fontStyle=1;fontSize=22;labelBackgroundColor=none;" parent="dCYjzD_zUEwOEs_KfjNQ-34" vertex="1">
          <mxGeometry y="40" width="40" height="38" as="geometry" />
        </mxCell>
        <mxCell id="pEg31mfBv90CwenNYa6Y-22" value="" style="group" vertex="1" connectable="0" parent="dCYjzD_zUEwOEs_KfjNQ-34">
          <mxGeometry x="-135" y="67" width="130" height="470" as="geometry" />
        </mxCell>
        <mxCell id="SOORIEfSWFdYIwNkLnd--11" value="&lt;span style=&quot;color: rgb(103, 171, 159); font-family: Helvetica; font-size: 12px; font-style: normal; font-variant-ligatures: normal; font-variant-caps: normal; font-weight: 700; letter-spacing: normal; orphans: 2; text-indent: 0px; text-transform: none; widows: 2; word-spacing: 0px; -webkit-text-stroke-width: 0px; background-color: rgb(248, 249, 250); text-decoration-thickness: initial; text-decoration-style: initial; text-decoration-color: initial; float: none; display: inline !important;&quot;&gt;Champion Model&lt;/span&gt;" style="text;whiteSpace=wrap;html=1;align=center;verticalAlign=middle;fillColor=none;" parent="pEg31mfBv90CwenNYa6Y-22" vertex="1">
          <mxGeometry y="-6" width="130" height="40" as="geometry" />
        </mxCell>
        <mxCell id="pEg31mfBv90CwenNYa6Y-21" value="" style="group" vertex="1" connectable="0" parent="pEg31mfBv90CwenNYa6Y-22">
          <mxGeometry x="15" y="21" width="110" height="449" as="geometry" />
        </mxCell>
        <mxCell id="FTdMu0rv-jqPg10kDiAU-158" value="" style="sketch=0;outlineConnect=0;fontColor=#232F3E;gradientColor=none;fillColor=#067F68;strokeColor=none;dashed=0;verticalLabelPosition=bottom;verticalAlign=top;align=center;html=1;fontSize=12;fontStyle=0;aspect=fixed;pointerEvents=1;shape=mxgraph.aws4.sagemaker_model;labelBackgroundColor=none;fontFamily=Helvetica;" parent="pEg31mfBv90CwenNYa6Y-21" vertex="1">
          <mxGeometry x="30" y="5" width="40" height="40" as="geometry" />
        </mxCell>
        <mxCell id="FTdMu0rv-jqPg10kDiAU-159" value="" style="sketch=0;outlineConnect=0;fontColor=#232F3E;gradientColor=none;fillColor=#067F68;strokeColor=none;dashed=0;verticalLabelPosition=bottom;verticalAlign=top;align=center;html=1;fontSize=12;fontStyle=0;aspect=fixed;pointerEvents=1;shape=mxgraph.aws4.sagemaker_model;labelBackgroundColor=none;fontFamily=Helvetica;" parent="pEg31mfBv90CwenNYa6Y-21" vertex="1">
          <mxGeometry x="30" y="61" width="40" height="40" as="geometry" />
        </mxCell>
        <mxCell id="FTdMu0rv-jqPg10kDiAU-160" value="" style="sketch=0;outlineConnect=0;fontColor=#232F3E;gradientColor=none;fillColor=#067F68;strokeColor=none;dashed=0;verticalLabelPosition=bottom;verticalAlign=top;align=center;html=1;fontSize=12;fontStyle=0;aspect=fixed;pointerEvents=1;shape=mxgraph.aws4.sagemaker_model;labelBackgroundColor=none;fontFamily=Helvetica;" parent="pEg31mfBv90CwenNYa6Y-21" vertex="1">
          <mxGeometry x="30" y="117" width="40" height="40" as="geometry" />
        </mxCell>
        <mxCell id="FTdMu0rv-jqPg10kDiAU-161" value="" style="sketch=0;outlineConnect=0;fontColor=#232F3E;gradientColor=none;fillColor=#067F68;strokeColor=none;dashed=0;verticalLabelPosition=bottom;verticalAlign=top;align=center;html=1;fontSize=12;fontStyle=0;aspect=fixed;pointerEvents=1;shape=mxgraph.aws4.sagemaker_model;labelBackgroundColor=none;fontFamily=Helvetica;" parent="pEg31mfBv90CwenNYa6Y-21" vertex="1">
          <mxGeometry x="30" y="173" width="40" height="40" as="geometry" />
        </mxCell>
        <mxCell id="FTdMu0rv-jqPg10kDiAU-162" value="" style="sketch=0;outlineConnect=0;fontColor=#232F3E;gradientColor=none;fillColor=#067F68;strokeColor=none;dashed=0;verticalLabelPosition=bottom;verticalAlign=top;align=center;html=1;fontSize=12;fontStyle=0;aspect=fixed;pointerEvents=1;shape=mxgraph.aws4.sagemaker_model;labelBackgroundColor=none;fontFamily=Helvetica;" parent="pEg31mfBv90CwenNYa6Y-21" vertex="1">
          <mxGeometry x="30" y="228" width="40" height="40" as="geometry" />
        </mxCell>
        <mxCell id="FTdMu0rv-jqPg10kDiAU-163" value="" style="sketch=0;outlineConnect=0;fontColor=#232F3E;gradientColor=none;fillColor=#067F68;strokeColor=none;dashed=0;verticalLabelPosition=bottom;verticalAlign=top;align=center;html=1;fontSize=12;fontStyle=0;aspect=fixed;pointerEvents=1;shape=mxgraph.aws4.sagemaker_model;labelBackgroundColor=none;fontFamily=Helvetica;" parent="pEg31mfBv90CwenNYa6Y-21" vertex="1">
          <mxGeometry x="30" y="284" width="40" height="40" as="geometry" />
        </mxCell>
        <mxCell id="FTdMu0rv-jqPg10kDiAU-164" value="" style="sketch=0;outlineConnect=0;fontColor=#232F3E;gradientColor=none;fillColor=#067F68;strokeColor=none;dashed=0;verticalLabelPosition=bottom;verticalAlign=top;align=center;html=1;fontSize=12;fontStyle=0;aspect=fixed;pointerEvents=1;shape=mxgraph.aws4.sagemaker_model;labelBackgroundColor=none;fontFamily=Helvetica;" parent="pEg31mfBv90CwenNYa6Y-21" vertex="1">
          <mxGeometry x="30" y="340" width="40" height="40" as="geometry" />
        </mxCell>
        <mxCell id="FTdMu0rv-jqPg10kDiAU-165" value="" style="sketch=0;outlineConnect=0;fontColor=#232F3E;gradientColor=none;fillColor=#067F68;strokeColor=none;dashed=0;verticalLabelPosition=bottom;verticalAlign=top;align=center;html=1;fontSize=12;fontStyle=0;aspect=fixed;pointerEvents=1;shape=mxgraph.aws4.sagemaker_model;labelBackgroundColor=none;fontFamily=Helvetica;" parent="pEg31mfBv90CwenNYa6Y-21" vertex="1">
          <mxGeometry x="30" y="396" width="40" height="40" as="geometry" />
        </mxCell>
        <mxCell id="FTdMu0rv-jqPg10kDiAU-175" value="" style="rounded=1;arcSize=0;dashed=1;fillColor=none;gradientColor=none;dashPattern=8 3 1 3;strokeWidth=2;labelBackgroundColor=none;fontFamily=Helvetica;fontSize=12;verticalAlign=top;align=center;strokeColor=#67AB9F;fontColor=#67AB9F;fontStyle=1" parent="pEg31mfBv90CwenNYa6Y-21" vertex="1">
          <mxGeometry width="100" height="449" as="geometry" />
        </mxCell>
        <mxCell id="SOORIEfSWFdYIwNkLnd--4" value="D+1 Regressor" style="text;html=1;strokeColor=none;fillColor=none;align=center;verticalAlign=middle;whiteSpace=wrap;rounded=0;fontStyle=1;fontSize=6;fontFamily=Helvetica;" parent="pEg31mfBv90CwenNYa6Y-21" vertex="1">
          <mxGeometry x="10" y="36" width="80" height="30" as="geometry" />
        </mxCell>
        <mxCell id="SOORIEfSWFdYIwNkLnd--5" value="D+5 Regressor" style="text;html=1;strokeColor=none;fillColor=none;align=center;verticalAlign=middle;whiteSpace=wrap;rounded=0;fontStyle=1;fontSize=6;fontFamily=Helvetica;" parent="pEg31mfBv90CwenNYa6Y-21" vertex="1">
          <mxGeometry x="10" y="93" width="80" height="30" as="geometry" />
        </mxCell>
        <mxCell id="SOORIEfSWFdYIwNkLnd--6" value="D+10 Regressor" style="text;html=1;strokeColor=none;fillColor=none;align=center;verticalAlign=middle;whiteSpace=wrap;rounded=0;fontStyle=1;fontSize=6;fontFamily=Helvetica;" parent="pEg31mfBv90CwenNYa6Y-21" vertex="1">
          <mxGeometry x="10" y="148" width="80" height="30" as="geometry" />
        </mxCell>
        <mxCell id="SOORIEfSWFdYIwNkLnd--7" value="M+1 Regressor" style="text;html=1;strokeColor=none;fillColor=none;align=center;verticalAlign=middle;whiteSpace=wrap;rounded=0;fontStyle=1;fontSize=6;fontFamily=Helvetica;" parent="pEg31mfBv90CwenNYa6Y-21" vertex="1">
          <mxGeometry x="10" y="202" width="80" height="30" as="geometry" />
        </mxCell>
        <mxCell id="SOORIEfSWFdYIwNkLnd--8" value="M+2 Regressor" style="text;html=1;strokeColor=none;fillColor=none;align=center;verticalAlign=middle;whiteSpace=wrap;rounded=0;fontStyle=1;fontSize=6;fontFamily=Helvetica;" parent="pEg31mfBv90CwenNYa6Y-21" vertex="1">
          <mxGeometry x="10" y="258" width="80" height="30" as="geometry" />
        </mxCell>
        <mxCell id="SOORIEfSWFdYIwNkLnd--9" value="M+3 Regressor" style="text;html=1;strokeColor=none;fillColor=none;align=center;verticalAlign=middle;whiteSpace=wrap;rounded=0;fontStyle=1;fontSize=6;fontFamily=Helvetica;" parent="pEg31mfBv90CwenNYa6Y-21" vertex="1">
          <mxGeometry x="10" y="316" width="80" height="30" as="geometry" />
        </mxCell>
        <mxCell id="SOORIEfSWFdYIwNkLnd--10" value="M+6 Classifier" style="text;html=1;strokeColor=none;fillColor=none;align=center;verticalAlign=middle;whiteSpace=wrap;rounded=0;fontStyle=1;fontSize=6;fontFamily=Helvetica;" parent="pEg31mfBv90CwenNYa6Y-21" vertex="1">
          <mxGeometry x="10" y="370" width="80" height="30" as="geometry" />
        </mxCell>
        <mxCell id="pEg31mfBv90CwenNYa6Y-16" value="x 3" style="text;html=1;strokeColor=none;fillColor=none;align=center;verticalAlign=middle;whiteSpace=wrap;rounded=0;labelBackgroundColor=none;fontFamily=Helvetica;fontSize=9;fontColor=#67AB9F;" vertex="1" parent="pEg31mfBv90CwenNYa6Y-21">
          <mxGeometry x="60" y="122" width="50" height="30" as="geometry" />
        </mxCell>
        <mxCell id="pEg31mfBv90CwenNYa6Y-17" value="x 3" style="text;html=1;strokeColor=none;fillColor=none;align=center;verticalAlign=middle;whiteSpace=wrap;rounded=0;labelBackgroundColor=none;fontFamily=Helvetica;fontSize=9;fontColor=#67AB9F;" vertex="1" parent="pEg31mfBv90CwenNYa6Y-21">
          <mxGeometry x="60" y="66" width="50" height="30" as="geometry" />
        </mxCell>
        <mxCell id="pEg31mfBv90CwenNYa6Y-18" value="x 3" style="text;html=1;strokeColor=none;fillColor=none;align=center;verticalAlign=middle;whiteSpace=wrap;rounded=0;labelBackgroundColor=none;fontFamily=Helvetica;fontSize=9;fontColor=#67AB9F;" vertex="1" parent="pEg31mfBv90CwenNYa6Y-21">
          <mxGeometry x="60" y="178" width="50" height="30" as="geometry" />
        </mxCell>
        <mxCell id="pEg31mfBv90CwenNYa6Y-19" value="x 3" style="text;html=1;strokeColor=none;fillColor=none;align=center;verticalAlign=middle;whiteSpace=wrap;rounded=0;labelBackgroundColor=none;fontFamily=Helvetica;fontSize=9;fontColor=#67AB9F;" vertex="1" parent="pEg31mfBv90CwenNYa6Y-21">
          <mxGeometry x="60" y="234" width="50" height="30" as="geometry" />
        </mxCell>
        <mxCell id="pEg31mfBv90CwenNYa6Y-20" value="x 3" style="text;html=1;strokeColor=none;fillColor=none;align=center;verticalAlign=middle;whiteSpace=wrap;rounded=0;labelBackgroundColor=none;fontFamily=Helvetica;fontSize=9;fontColor=#67AB9F;" vertex="1" parent="pEg31mfBv90CwenNYa6Y-21">
          <mxGeometry x="60" y="290" width="50" height="30" as="geometry" />
        </mxCell>
        <mxCell id="SOORIEfSWFdYIwNkLnd--12" value="M+12 Classifier" style="text;html=1;strokeColor=none;fillColor=none;align=center;verticalAlign=middle;whiteSpace=wrap;rounded=0;fontStyle=1;fontSize=6;fontFamily=Helvetica;" parent="pEg31mfBv90CwenNYa6Y-21" vertex="1">
          <mxGeometry x="10" y="425" width="80" height="30" as="geometry" />
        </mxCell>
        <mxCell id="pEg31mfBv90CwenNYa6Y-23" style="edgeStyle=orthogonalEdgeStyle;rounded=0;orthogonalLoop=1;jettySize=auto;html=1;entryX=0;entryY=0.5;entryDx=0;entryDy=0;fontSize=9;" edge="1" parent="dCYjzD_zUEwOEs_KfjNQ-34" source="pEg31mfBv90CwenNYa6Y-13" target="pEg31mfBv90CwenNYa6Y-12">
          <mxGeometry relative="1" as="geometry" />
        </mxCell>
        <mxCell id="pEg31mfBv90CwenNYa6Y-13" value="AWS RDS&lt;br&gt;PostgreSQL" style="sketch=0;points=[[0,0,0],[0.25,0,0],[0.5,0,0],[0.75,0,0],[1,0,0],[0,1,0],[0.25,1,0],[0.5,1,0],[0.75,1,0],[1,1,0],[0,0.25,0],[0,0.5,0],[0,0.75,0],[1,0.25,0],[1,0.5,0],[1,0.75,0]];outlineConnect=0;fontColor=#232F3E;gradientColor=#4D72F3;gradientDirection=north;fillColor=#3334B9;strokeColor=#ffffff;dashed=0;verticalLabelPosition=bottom;verticalAlign=top;align=center;html=1;fontSize=12;fontStyle=0;aspect=fixed;shape=mxgraph.aws4.resourceIcon;resIcon=mxgraph.aws4.rds_on_vmware;" vertex="1" parent="dCYjzD_zUEwOEs_KfjNQ-34">
          <mxGeometry x="20" y="242" width="78" height="78" as="geometry" />
        </mxCell>
        <mxCell id="pEg31mfBv90CwenNYa6Y-12" value="시각화 Dashboard" style="shape=image;verticalLabelPosition=bottom;labelBackgroundColor=default;verticalAlign=top;aspect=fixed;imageAspect=0;image=https://images.velog.io/images/kjh950330/post/56a53a0f-0676-43c5-99b4-67d0e8b67dd2/JSP%EC%8D%B8%EB%84%A4%EC%9D%BC.png;clipPath=inset(0.63% 24.33% 1.27% 23% round 17%);" vertex="1" parent="dCYjzD_zUEwOEs_KfjNQ-34">
          <mxGeometry x="150" y="242" width="79.51" height="78" as="geometry" />
        </mxCell>
        <mxCell id="pEg31mfBv90CwenNYa6Y-25" style="edgeStyle=orthogonalEdgeStyle;rounded=0;orthogonalLoop=1;jettySize=auto;html=1;fontSize=9;" edge="1" parent="dCYjzD_zUEwOEs_KfjNQ-34" source="pEg31mfBv90CwenNYa6Y-18" target="pEg31mfBv90CwenNYa6Y-13">
          <mxGeometry relative="1" as="geometry" />
        </mxCell>
        <mxCell id="CtUr043-NP_PtcqY4t4r-14" style="edgeStyle=orthogonalEdgeStyle;rounded=0;orthogonalLoop=1;jettySize=auto;html=1;entryX=0;entryY=0.5;entryDx=0;entryDy=0;entryPerimeter=0;fontSize=11;" parent="1dBTJliTiQG94aDny_BC-19" source="CtUr043-NP_PtcqY4t4r-5" target="1dBTJliTiQG94aDny_BC-4" edge="1">
          <mxGeometry relative="1" as="geometry">
            <Array as="points">
              <mxPoint x="587" y="385" />
              <mxPoint x="587" y="318" />
            </Array>
          </mxGeometry>
        </mxCell>
        <mxCell id="CtUr043-NP_PtcqY4t4r-15" style="edgeStyle=orthogonalEdgeStyle;rounded=0;orthogonalLoop=1;jettySize=auto;html=1;entryX=0;entryY=0.5;entryDx=0;entryDy=0;entryPerimeter=0;fontSize=11;" parent="1dBTJliTiQG94aDny_BC-19" source="CtUr043-NP_PtcqY4t4r-6" target="1dBTJliTiQG94aDny_BC-4" edge="1">
          <mxGeometry relative="1" as="geometry">
            <Array as="points">
              <mxPoint x="587" y="499" />
              <mxPoint x="587" y="318" />
            </Array>
          </mxGeometry>
        </mxCell>
        <mxCell id="CtUr043-NP_PtcqY4t4r-18" style="edgeStyle=orthogonalEdgeStyle;rounded=0;orthogonalLoop=1;jettySize=auto;html=1;entryX=0;entryY=0.5;entryDx=0;entryDy=0;entryPerimeter=0;fontSize=11;" parent="1dBTJliTiQG94aDny_BC-19" source="CtUr043-NP_PtcqY4t4r-4" target="1dBTJliTiQG94aDny_BC-4" edge="1">
          <mxGeometry relative="1" as="geometry">
            <Array as="points">
              <mxPoint x="587" y="209" />
              <mxPoint x="587" y="318" />
            </Array>
          </mxGeometry>
        </mxCell>
        <mxCell id="FTdMu0rv-jqPg10kDiAU-1" value="데이터 변환" style="swimlane;startSize=40;fontSize=16;" parent="1dBTJliTiQG94aDny_BC-19" vertex="1">
          <mxGeometry x="909" y="30" width="368" height="540" as="geometry">
            <mxRectangle x="731" y="30" width="120" height="30" as="alternateBounds" />
          </mxGeometry>
        </mxCell>
        <mxCell id="FTdMu0rv-jqPg10kDiAU-53" value="" style="html=1;verticalLabelPosition=bottom;align=center;labelBackgroundColor=#ffffff;verticalAlign=top;strokeWidth=2;strokeColor=#0080F0;shadow=0;dashed=0;shape=mxgraph.ios7.icons.data;" parent="FTdMu0rv-jqPg10kDiAU-1" vertex="1">
          <mxGeometry x="168" y="60" width="74.23" height="80" as="geometry" />
        </mxCell>
        <mxCell id="FTdMu0rv-jqPg10kDiAU-27" value="...&lt;br style=&quot;font-size: 6px;&quot;&gt;22.07.30&lt;br&gt;22.07.31&lt;br&gt;22.08.01&lt;br style=&quot;font-size: 6px;&quot;&gt;22.08.02" style="shape=note;whiteSpace=wrap;html=1;backgroundOutline=1;darkOpacity=0.05;fontSize=6;size=14;" parent="FTdMu0rv-jqPg10kDiAU-1" vertex="1">
          <mxGeometry x="58" y="60" width="102" height="80" as="geometry" />
        </mxCell>
        <mxCell id="FTdMu0rv-jqPg10kDiAU-136" style="edgeStyle=orthogonalEdgeStyle;rounded=0;orthogonalLoop=1;jettySize=auto;html=1;entryX=0;entryY=0.5;entryDx=0;entryDy=0;entryPerimeter=0;fontFamily=Helvetica;fontSize=9;fontColor=#67AB9F;exitX=1.01;exitY=0.615;exitDx=0;exitDy=0;exitPerimeter=0;" parent="FTdMu0rv-jqPg10kDiAU-1" source="FTdMu0rv-jqPg10kDiAU-53" target="1dBTJliTiQG94aDny_BC-58" edge="1">
          <mxGeometry relative="1" as="geometry">
            <Array as="points">
              <mxPoint x="258" y="109" />
              <mxPoint x="258" y="280" />
            </Array>
            <mxPoint x="248" y="110" as="sourcePoint" />
          </mxGeometry>
        </mxCell>
        <mxCell id="FTdMu0rv-jqPg10kDiAU-52" value="Daily" style="text;html=1;strokeColor=none;fillColor=none;align=center;verticalAlign=middle;whiteSpace=wrap;rounded=0;fontStyle=1;fontSize=6;fontFamily=Helvetica;" parent="FTdMu0rv-jqPg10kDiAU-1" vertex="1">
          <mxGeometry x="174.1199999999999" y="94" width="60" height="30" as="geometry" />
        </mxCell>
        <mxCell id="FTdMu0rv-jqPg10kDiAU-58" value="Monthly" style="text;html=1;strokeColor=none;fillColor=none;align=center;verticalAlign=middle;whiteSpace=wrap;rounded=0;fontStyle=1;fontSize=6;fontFamily=Helvetica;" parent="FTdMu0rv-jqPg10kDiAU-1" vertex="1">
          <mxGeometry x="175.1199999999999" y="215" width="60" height="30" as="geometry" />
        </mxCell>
        <mxCell id="FTdMu0rv-jqPg10kDiAU-137" style="edgeStyle=orthogonalEdgeStyle;rounded=0;orthogonalLoop=1;jettySize=auto;html=1;entryX=0;entryY=0.5;entryDx=0;entryDy=0;entryPerimeter=0;fontFamily=Helvetica;fontSize=9;fontColor=#67AB9F;" parent="FTdMu0rv-jqPg10kDiAU-1" source="FTdMu0rv-jqPg10kDiAU-59" target="1dBTJliTiQG94aDny_BC-58" edge="1">
          <mxGeometry relative="1" as="geometry">
            <Array as="points">
              <mxPoint x="258" y="220" />
              <mxPoint x="258" y="280" />
            </Array>
          </mxGeometry>
        </mxCell>
        <mxCell id="FTdMu0rv-jqPg10kDiAU-59" value="" style="html=1;verticalLabelPosition=bottom;align=center;labelBackgroundColor=#ffffff;verticalAlign=top;strokeWidth=2;strokeColor=#0080F0;shadow=0;dashed=0;shape=mxgraph.ios7.icons.data;" parent="FTdMu0rv-jqPg10kDiAU-1" vertex="1">
          <mxGeometry x="168" y="180" width="74.23" height="80" as="geometry" />
        </mxCell>
        <mxCell id="FTdMu0rv-jqPg10kDiAU-60" value="Monthly" style="text;html=1;strokeColor=none;fillColor=none;align=center;verticalAlign=middle;whiteSpace=wrap;rounded=0;fontStyle=1;fontSize=6;fontFamily=Helvetica;" parent="FTdMu0rv-jqPg10kDiAU-1" vertex="1">
          <mxGeometry x="175.1199999999999" y="335" width="60" height="30" as="geometry" />
        </mxCell>
        <mxCell id="FTdMu0rv-jqPg10kDiAU-138" style="edgeStyle=orthogonalEdgeStyle;rounded=0;orthogonalLoop=1;jettySize=auto;html=1;fontFamily=Helvetica;fontSize=9;fontColor=#67AB9F;" parent="FTdMu0rv-jqPg10kDiAU-1" source="FTdMu0rv-jqPg10kDiAU-61" target="1dBTJliTiQG94aDny_BC-58" edge="1">
          <mxGeometry relative="1" as="geometry">
            <Array as="points">
              <mxPoint x="258" y="340" />
              <mxPoint x="258" y="281" />
            </Array>
          </mxGeometry>
        </mxCell>
        <mxCell id="FTdMu0rv-jqPg10kDiAU-61" value="" style="html=1;verticalLabelPosition=bottom;align=center;labelBackgroundColor=#ffffff;verticalAlign=top;strokeWidth=2;strokeColor=#0080F0;shadow=0;dashed=0;shape=mxgraph.ios7.icons.data;" parent="FTdMu0rv-jqPg10kDiAU-1" vertex="1">
          <mxGeometry x="168" y="300" width="74.23" height="80" as="geometry" />
        </mxCell>
        <mxCell id="FTdMu0rv-jqPg10kDiAU-62" value="Monthly" style="text;html=1;strokeColor=none;fillColor=none;align=center;verticalAlign=middle;whiteSpace=wrap;rounded=0;fontStyle=1;fontSize=6;fontFamily=Helvetica;" parent="FTdMu0rv-jqPg10kDiAU-1" vertex="1">
          <mxGeometry x="175.1199999999999" y="455" width="60" height="30" as="geometry" />
        </mxCell>
        <mxCell id="FTdMu0rv-jqPg10kDiAU-140" style="edgeStyle=orthogonalEdgeStyle;rounded=0;orthogonalLoop=1;jettySize=auto;html=1;entryX=0;entryY=0.5;entryDx=0;entryDy=0;entryPerimeter=0;fontFamily=Helvetica;fontSize=9;fontColor=#67AB9F;" parent="FTdMu0rv-jqPg10kDiAU-1" source="FTdMu0rv-jqPg10kDiAU-63" target="1dBTJliTiQG94aDny_BC-58" edge="1">
          <mxGeometry relative="1" as="geometry">
            <Array as="points">
              <mxPoint x="258" y="460" />
              <mxPoint x="258" y="280" />
            </Array>
          </mxGeometry>
        </mxCell>
        <mxCell id="FTdMu0rv-jqPg10kDiAU-63" value="" style="html=1;verticalLabelPosition=bottom;align=center;labelBackgroundColor=#ffffff;verticalAlign=top;strokeWidth=2;strokeColor=#0080F0;shadow=0;dashed=0;shape=mxgraph.ios7.icons.data;" parent="FTdMu0rv-jqPg10kDiAU-1" vertex="1">
          <mxGeometry x="168" y="420" width="74.23" height="80" as="geometry" />
        </mxCell>
        <mxCell id="FTdMu0rv-jqPg10kDiAU-64" value="...&lt;br&gt;22.07.05~22.07.09&lt;br&gt;22.07.09~22.07.13&lt;br&gt;22.07.13~22.07.17&lt;br&gt;22.07.17~22.07.21" style="shape=note;whiteSpace=wrap;html=1;backgroundOutline=1;darkOpacity=0.05;fontSize=6;size=14;" parent="FTdMu0rv-jqPg10kDiAU-1" vertex="1">
          <mxGeometry x="58" y="180" width="102" height="80" as="geometry" />
        </mxCell>
        <mxCell id="FTdMu0rv-jqPg10kDiAU-65" value="...&lt;br&gt;22.06.08~22.06.17&lt;br&gt;22.06.17~22.06.28&lt;br&gt;22.06.28~22.07.07&lt;br&gt;22.07.07~22.07.16" style="shape=note;whiteSpace=wrap;html=1;backgroundOutline=1;darkOpacity=0.05;fontSize=6;size=14;" parent="FTdMu0rv-jqPg10kDiAU-1" vertex="1">
          <mxGeometry x="58" y="300" width="102" height="80" as="geometry" />
        </mxCell>
        <mxCell id="FTdMu0rv-jqPg10kDiAU-66" value="...&lt;br&gt;22.02.25~22.03.25&lt;br&gt;22.03.25~22.04.25&lt;br&gt;22.04.25~22.05.25&lt;br&gt;22.05.25~22.06.25" style="shape=note;whiteSpace=wrap;html=1;backgroundOutline=1;darkOpacity=0.05;fontSize=6;size=14;" parent="FTdMu0rv-jqPg10kDiAU-1" vertex="1">
          <mxGeometry x="58" y="420" width="102" height="80" as="geometry" />
        </mxCell>
        <mxCell id="FTdMu0rv-jqPg10kDiAU-67" value="5 days" style="text;html=1;strokeColor=none;fillColor=none;align=center;verticalAlign=middle;whiteSpace=wrap;rounded=0;fontStyle=1;fontSize=6;fontFamily=Helvetica;" parent="FTdMu0rv-jqPg10kDiAU-1" vertex="1">
          <mxGeometry x="174.1199999999999" y="216" width="60" height="30" as="geometry" />
        </mxCell>
        <mxCell id="FTdMu0rv-jqPg10kDiAU-68" value="10 days" style="text;html=1;strokeColor=none;fillColor=none;align=center;verticalAlign=middle;whiteSpace=wrap;rounded=0;fontStyle=1;fontSize=6;fontFamily=Helvetica;" parent="FTdMu0rv-jqPg10kDiAU-1" vertex="1">
          <mxGeometry x="174.1199999999999" y="335" width="60" height="30" as="geometry" />
        </mxCell>
        <mxCell id="FTdMu0rv-jqPg10kDiAU-69" value="Monthly" style="text;html=1;strokeColor=none;fillColor=none;align=center;verticalAlign=middle;whiteSpace=wrap;rounded=0;fontStyle=1;fontSize=6;fontFamily=Helvetica;" parent="FTdMu0rv-jqPg10kDiAU-1" vertex="1">
          <mxGeometry x="174.1199999999999" y="455" width="60" height="30" as="geometry" />
        </mxCell>
        <mxCell id="FTdMu0rv-jqPg10kDiAU-73" value="Close Price" style="text;html=1;strokeColor=none;fillColor=none;align=center;verticalAlign=middle;whiteSpace=wrap;rounded=0;fontStyle=1;fontSize=6;fontFamily=Helvetica;" parent="FTdMu0rv-jqPg10kDiAU-1" vertex="1">
          <mxGeometry x="174.1199999999999" y="113" width="60" height="30" as="geometry" />
        </mxCell>
        <mxCell id="FTdMu0rv-jqPg10kDiAU-74" value="MIN MAX AVG" style="text;html=1;strokeColor=none;fillColor=none;align=center;verticalAlign=middle;whiteSpace=wrap;rounded=0;fontStyle=1;fontSize=6;fontFamily=Helvetica;" parent="FTdMu0rv-jqPg10kDiAU-1" vertex="1">
          <mxGeometry x="170" y="234" width="70" height="30" as="geometry" />
        </mxCell>
        <mxCell id="FTdMu0rv-jqPg10kDiAU-75" value="MIN MAX AVG" style="text;html=1;strokeColor=none;fillColor=none;align=center;verticalAlign=middle;whiteSpace=wrap;rounded=0;fontStyle=1;fontSize=6;fontFamily=Helvetica;" parent="FTdMu0rv-jqPg10kDiAU-1" vertex="1">
          <mxGeometry x="170" y="353" width="70" height="30" as="geometry" />
        </mxCell>
        <mxCell id="FTdMu0rv-jqPg10kDiAU-76" value="MIN MAX AVG" style="text;html=1;strokeColor=none;fillColor=none;align=center;verticalAlign=middle;whiteSpace=wrap;rounded=0;fontStyle=1;fontSize=6;fontFamily=Helvetica;" parent="FTdMu0rv-jqPg10kDiAU-1" vertex="1">
          <mxGeometry x="170" y="475" width="70" height="30" as="geometry" />
        </mxCell>
        <mxCell id="1dBTJliTiQG94aDny_BC-58" value="AWS S3&lt;br&gt;Transformed&lt;br&gt;Data" style="sketch=0;points=[[0,0,0],[0.25,0,0],[0.5,0,0],[0.75,0,0],[1,0,0],[0,1,0],[0.25,1,0],[0.5,1,0],[0.75,1,0],[1,1,0],[0,0.25,0],[0,0.5,0],[0,0.75,0],[1,0.25,0],[1,0.5,0],[1,0.75,0]];outlineConnect=0;fontColor=#232F3E;gradientColor=#60A337;gradientDirection=north;fillColor=#277116;strokeColor=#ffffff;dashed=0;verticalLabelPosition=bottom;verticalAlign=top;align=center;html=1;fontSize=12;fontStyle=0;aspect=fixed;shape=mxgraph.aws4.resourceIcon;resIcon=mxgraph.aws4.s3;" parent="FTdMu0rv-jqPg10kDiAU-1" vertex="1">
          <mxGeometry x="278" y="241" width="79" height="79" as="geometry" />
        </mxCell>
        <mxCell id="FTdMu0rv-jqPg10kDiAU-12" value="5" style="rounded=1;whiteSpace=wrap;html=1;fillColor=#007CBD;strokeColor=none;fontColor=#FFFFFF;fontStyle=1;fontSize=22;labelBackgroundColor=none;" parent="FTdMu0rv-jqPg10kDiAU-1" vertex="1">
          <mxGeometry x="1" y="42" width="40" height="38" as="geometry" />
        </mxCell>
        <mxCell id="FTdMu0rv-jqPg10kDiAU-71" style="edgeStyle=orthogonalEdgeStyle;rounded=0;orthogonalLoop=1;jettySize=auto;html=1;entryX=0;entryY=0.5;entryDx=0;entryDy=0;entryPerimeter=0;fontFamily=Helvetica;fontSize=9;" parent="1dBTJliTiQG94aDny_BC-19" target="FTdMu0rv-jqPg10kDiAU-27" edge="1">
          <mxGeometry relative="1" as="geometry">
            <mxPoint x="884" y="199.51724137931046" as="sourcePoint" />
          </mxGeometry>
        </mxCell>
        <mxCell id="FTdMu0rv-jqPg10kDiAU-72" style="edgeStyle=orthogonalEdgeStyle;rounded=0;orthogonalLoop=1;jettySize=auto;html=1;fontFamily=Helvetica;fontSize=9;" parent="1dBTJliTiQG94aDny_BC-19" target="FTdMu0rv-jqPg10kDiAU-64" edge="1">
          <mxGeometry relative="1" as="geometry">
            <mxPoint x="884" y="199.51724137931046" as="sourcePoint" />
            <Array as="points">
              <mxPoint x="926" y="200" />
              <mxPoint x="926" y="250" />
            </Array>
          </mxGeometry>
        </mxCell>
        <mxCell id="FTdMu0rv-jqPg10kDiAU-77" style="edgeStyle=orthogonalEdgeStyle;rounded=0;orthogonalLoop=1;jettySize=auto;html=1;entryX=0;entryY=0.5;entryDx=0;entryDy=0;entryPerimeter=0;fontFamily=Helvetica;fontSize=9;" parent="1dBTJliTiQG94aDny_BC-19" target="FTdMu0rv-jqPg10kDiAU-65" edge="1">
          <mxGeometry relative="1" as="geometry">
            <mxPoint x="884" y="199.51724137931046" as="sourcePoint" />
          </mxGeometry>
        </mxCell>
        <mxCell id="FTdMu0rv-jqPg10kDiAU-78" style="edgeStyle=orthogonalEdgeStyle;rounded=0;orthogonalLoop=1;jettySize=auto;html=1;entryX=0;entryY=0.5;entryDx=0;entryDy=0;entryPerimeter=0;fontFamily=Helvetica;fontSize=9;" parent="1dBTJliTiQG94aDny_BC-19" target="FTdMu0rv-jqPg10kDiAU-66" edge="1">
          <mxGeometry relative="1" as="geometry">
            <mxPoint x="884" y="199.51724137931046" as="sourcePoint" />
          </mxGeometry>
        </mxCell>
        <mxCell id="6hlHMrz7loX8VQzPJCg0-1" value="Update: 2022-08-03" style="text;html=1;resizable=0;points=[];autosize=1;align=left;verticalAlign=top;spacingTop=-4;fontSize=16;labelBackgroundColor=none;" parent="1" vertex="1">
          <mxGeometry x="330" y="76.5" width="170" height="30" as="geometry" />
        </mxCell>
        <mxCell id="CtUr043-NP_PtcqY4t4r-3" value="" style="group" parent="1" vertex="1" connectable="0">
          <mxGeometry x="2020" y="180" width="555.5" height="550" as="geometry" />
        </mxCell>
        <mxCell id="Gu6WN1yIWV0_MbR31gMe-1" value="" style="rounded=0;whiteSpace=wrap;html=1;fillColor=#EAEDED;fontSize=22;fontColor=#FFFFFF;strokeColor=none;labelBackgroundColor=none;" parent="CtUr043-NP_PtcqY4t4r-3" vertex="1">
          <mxGeometry width="555.5" height="550" as="geometry" />
        </mxCell>
        <mxCell id="-QjtrjUzRDEMRZ5MF8oH-36" value="1" style="rounded=1;whiteSpace=wrap;html=1;fillColor=#007CBD;strokeColor=none;fontColor=#FFFFFF;fontStyle=1;fontSize=22;labelBackgroundColor=none;" parent="CtUr043-NP_PtcqY4t4r-3" vertex="1">
          <mxGeometry x="17" y="12.382739212007504" width="40" height="39.21200750469043" as="geometry" />
        </mxCell>
        <mxCell id="-QjtrjUzRDEMRZ5MF8oH-37" value="2" style="rounded=1;whiteSpace=wrap;html=1;fillColor=#007CBD;strokeColor=none;fontColor=#FFFFFF;fontStyle=1;fontSize=22;labelBackgroundColor=none;" parent="CtUr043-NP_PtcqY4t4r-3" vertex="1">
          <mxGeometry x="17" y="122.57607879924953" width="40" height="39.21200750469043" as="geometry" />
        </mxCell>
        <mxCell id="-QjtrjUzRDEMRZ5MF8oH-38" value="3" style="rounded=1;whiteSpace=wrap;html=1;fillColor=#007CBD;strokeColor=none;fontColor=#FFFFFF;fontStyle=1;fontSize=22;labelBackgroundColor=none;" parent="CtUr043-NP_PtcqY4t4r-3" vertex="1">
          <mxGeometry x="17" y="197" width="40" height="39.21200750469043" as="geometry" />
        </mxCell>
        <mxCell id="-QjtrjUzRDEMRZ5MF8oH-39" value="4" style="rounded=1;whiteSpace=wrap;html=1;fillColor=#007CBD;strokeColor=none;fontColor=#FFFFFF;fontStyle=1;fontSize=22;labelBackgroundColor=none;" parent="CtUr043-NP_PtcqY4t4r-3" vertex="1">
          <mxGeometry x="17" y="271" width="40" height="39.21200750469043" as="geometry" />
        </mxCell>
        <mxCell id="-QjtrjUzRDEMRZ5MF8oH-40" value="5" style="rounded=1;whiteSpace=wrap;html=1;fillColor=#007CBD;strokeColor=none;fontColor=#FFFFFF;fontStyle=1;fontSize=22;labelBackgroundColor=none;" parent="CtUr043-NP_PtcqY4t4r-3" vertex="1">
          <mxGeometry x="17" y="345" width="40" height="39.21200750469043" as="geometry" />
        </mxCell>
        <mxCell id="-QjtrjUzRDEMRZ5MF8oH-41" value="6" style="rounded=1;whiteSpace=wrap;html=1;fillColor=#007CBD;strokeColor=none;fontColor=#FFFFFF;fontStyle=1;fontSize=22;labelBackgroundColor=none;" parent="CtUr043-NP_PtcqY4t4r-3" vertex="1">
          <mxGeometry x="17" y="419" width="40" height="39.21200750469043" as="geometry" />
        </mxCell>
        <mxCell id="-QjtrjUzRDEMRZ5MF8oH-42" value="7" style="rounded=1;whiteSpace=wrap;html=1;fillColor=#007CBD;strokeColor=none;fontColor=#FFFFFF;fontStyle=1;fontSize=22;labelBackgroundColor=none;" parent="CtUr043-NP_PtcqY4t4r-3" vertex="1">
          <mxGeometry x="17" y="493.61341463414635" width="40" height="39.21200750469043" as="geometry" />
        </mxCell>
        <mxCell id="SCVMTBWpLvtzJIhz15lM-6" value="EventBridge를 통해&lt;span&gt;&amp;nbsp;매일 오후 6시 4개의 Lambda 실행하는 스케줄링 수행&lt;br&gt;&lt;ul&gt;&lt;li&gt;&lt;span&gt;1st Lambda: 18:00에 윈도우 EC2 서버를 켜는 일 수행&lt;/span&gt;&lt;/li&gt;&lt;li&gt;2nd Lambda: 18:15에 윈도우 EC2 서버를 종료하는 일 수행&lt;/li&gt;&lt;li&gt;3rd Lambda: Investing 주가 데이터 수집 수행&lt;/li&gt;&lt;li&gt;4th Lambda: WeatherOnlineAPI를 통한 데이터 수집 수행&lt;/li&gt;&lt;/ul&gt;&lt;/span&gt;" style="text;html=1;align=left;verticalAlign=top;spacingTop=-4;fontSize=14;labelBackgroundColor=none;whiteSpace=wrap;" parent="CtUr043-NP_PtcqY4t4r-3" vertex="1">
          <mxGeometry x="70" y="12.38" width="480" height="101.13" as="geometry" />
        </mxCell>
        <mxCell id="SCVMTBWpLvtzJIhz15lM-7" value="윈도우 EC2를 통해 Eikon 프로그램 실행 후 ReuterAPI를 통한 데이터 수집&lt;br&gt;&lt;font style=&quot;font-size: 13px;&quot;&gt;※&amp;nbsp;&lt;b&gt;Eikon 프로그램&lt;/b&gt;:&lt;span style=&quot;background-color: initial;&quot;&gt;&amp;nbsp;1) VPN역할 수행 2)&lt;/span&gt;&lt;span style=&quot;background-color: initial;&quot;&gt;&amp;nbsp;권장사양: t3a.large(RAM 8GB)&lt;/span&gt;&lt;span style=&quot;background-color: initial;&quot;&gt;&lt;br&gt;&lt;/span&gt;&lt;/font&gt;" style="text;html=1;align=left;verticalAlign=top;spacingTop=-4;fontSize=14;labelBackgroundColor=none;whiteSpace=wrap;" parent="CtUr043-NP_PtcqY4t4r-3" vertex="1">
          <mxGeometry x="69" y="120" width="486.5" height="40" as="geometry" />
        </mxCell>
        <mxCell id="SCVMTBWpLvtzJIhz15lM-9" value="&lt;span&gt;AI 예측 모델 생성을 위한 주가, 날씨 데이터 세트를 결합한&amp;nbsp;&lt;/span&gt;Dataset 생성&lt;br&gt;주가 데이터의 경우 결측치를 상호보완하여 1개의 Dataset&amp;nbsp;&amp;nbsp;생성" style="text;html=1;align=left;verticalAlign=top;spacingTop=-4;fontSize=14;labelBackgroundColor=none;whiteSpace=wrap;" parent="CtUr043-NP_PtcqY4t4r-3" vertex="1">
          <mxGeometry x="71.75" y="197" width="481" height="41.28" as="geometry" />
        </mxCell>
        <mxCell id="SCVMTBWpLvtzJIhz15lM-10" value="각 형식에 맞는 데이터 셋을 만들기 위해 Glue를 통한 데이터 변환한다.&lt;br&gt;Monthly는 사용자가 직접 Trigger를 수행하며," style="text;html=1;align=left;verticalAlign=top;spacingTop=-4;fontSize=14;labelBackgroundColor=none;whiteSpace=wrap;" parent="CtUr043-NP_PtcqY4t4r-3" vertex="1">
          <mxGeometry x="70" y="270.99679174484055" width="450" height="40.75984990619137" as="geometry" />
        </mxCell>
        <mxCell id="SCVMTBWpLvtzJIhz15lM-11" value="S3내 Dataset을 SageMaker input으로&amp;nbsp;넣어 배치 추론을 수행한다.&lt;br&gt;이때, 컴퓨팅 인스턴스는 활성화 되고 추론작업이 끝나면 자동으로 종료된다. 결과값 및 Model Checkpoint는 AWS S3에 저장된다." style="text;html=1;align=left;verticalAlign=top;spacingTop=-4;fontSize=14;labelBackgroundColor=none;whiteSpace=wrap;" parent="CtUr043-NP_PtcqY4t4r-3" vertex="1">
          <mxGeometry x="71.75" y="344.9951219512195" width="449" height="40.75984990619137" as="geometry" />
        </mxCell>
        <mxCell id="SCVMTBWpLvtzJIhz15lM-13" value="&lt;span&gt;Forecasting Result Data와 Historical Data를 S3에 담고 이를 User에게 QuickSight를 통한 시각화 수행하며, MLOps Engineer는 Model drift과 Data drift를 모니터링한다.&lt;/span&gt;" style="text;html=1;align=left;verticalAlign=top;spacingTop=-4;fontSize=14;labelBackgroundColor=none;whiteSpace=wrap;" parent="CtUr043-NP_PtcqY4t4r-3" vertex="1">
          <mxGeometry x="70" y="492.8417823639774" width="449" height="40.75984990619137" as="geometry" />
        </mxCell>
        <mxCell id="CtUr043-NP_PtcqY4t4r-2" value="여러 모델 중 사용자가 설정한 모델 선정 Metric을 통해 모델별 Metric 결과와 최종선정된 모델 예측 결과를 S3로 보냄" style="text;html=1;align=left;verticalAlign=top;spacingTop=-4;fontSize=14;labelBackgroundColor=none;whiteSpace=wrap;" parent="CtUr043-NP_PtcqY4t4r-3" vertex="1">
          <mxGeometry x="71.75" y="419.00318949343335" width="449" height="40.75984990619137" as="geometry" />
        </mxCell>
        <mxCell id="dCYjzD_zUEwOEs_KfjNQ-3" value="모델 학습 및 평가" style="swimlane;startSize=40;fontSize=16;strokeColor=#000000;" parent="1" vertex="1">
          <mxGeometry x="1310" y="180" width="430" height="540" as="geometry">
            <mxRectangle x="370" y="1170" width="120" height="30" as="alternateBounds" />
          </mxGeometry>
        </mxCell>
        <mxCell id="FTdMu0rv-jqPg10kDiAU-152" style="edgeStyle=orthogonalEdgeStyle;rounded=0;orthogonalLoop=1;jettySize=auto;html=1;entryX=0;entryY=0.5;entryDx=0;entryDy=0;entryPerimeter=0;fontFamily=Helvetica;fontSize=9;fontColor=#67AB9F;" parent="dCYjzD_zUEwOEs_KfjNQ-3" source="FTdMu0rv-jqPg10kDiAU-93" edge="1">
          <mxGeometry relative="1" as="geometry">
            <Array as="points">
              <mxPoint x="280" y="136" />
              <mxPoint x="280" y="281" />
            </Array>
            <mxPoint x="309.99999999999955" y="281" as="targetPoint" />
          </mxGeometry>
        </mxCell>
        <mxCell id="FTdMu0rv-jqPg10kDiAU-93" value="Daily work(auto)" style="rounded=1;arcSize=10;dashed=1;fillColor=none;gradientColor=none;dashPattern=8 3 1 3;strokeWidth=2;labelBackgroundColor=none;fontFamily=Helvetica;fontSize=14;verticalAlign=top;align=center;strokeColor=#67AB9F;fontColor=#67AB9F;fontStyle=1" parent="dCYjzD_zUEwOEs_KfjNQ-3" vertex="1">
          <mxGeometry y="42" width="250" height="188" as="geometry" />
        </mxCell>
        <mxCell id="FTdMu0rv-jqPg10kDiAU-151" style="edgeStyle=orthogonalEdgeStyle;rounded=0;orthogonalLoop=1;jettySize=auto;html=1;exitX=1;exitY=0.5;exitDx=0;exitDy=0;entryX=0;entryY=0.5;entryDx=0;entryDy=0;entryPerimeter=0;fontFamily=Helvetica;fontSize=9;fontColor=#67AB9F;" parent="dCYjzD_zUEwOEs_KfjNQ-3" source="FTdMu0rv-jqPg10kDiAU-94" edge="1">
          <mxGeometry relative="1" as="geometry">
            <Array as="points">
              <mxPoint x="280" y="325" />
              <mxPoint x="280" y="281" />
            </Array>
            <mxPoint x="309.99999999999955" y="281" as="targetPoint" />
          </mxGeometry>
        </mxCell>
        <mxCell id="FTdMu0rv-jqPg10kDiAU-94" value="Weekly work(manual)" style="rounded=1;arcSize=10;dashed=1;fillColor=none;gradientColor=none;dashPattern=8 3 1 3;strokeWidth=2;labelBackgroundColor=none;fontFamily=Helvetica;fontSize=14;verticalAlign=top;align=center;fontColor=#67AB9F;fontStyle=1;strokeColor=#67AB9F;" parent="dCYjzD_zUEwOEs_KfjNQ-3" vertex="1">
          <mxGeometry y="230" width="250" height="190" as="geometry" />
        </mxCell>
        <mxCell id="FTdMu0rv-jqPg10kDiAU-154" style="edgeStyle=orthogonalEdgeStyle;rounded=0;orthogonalLoop=1;jettySize=auto;html=1;entryX=0;entryY=0.5;entryDx=0;entryDy=0;entryPerimeter=0;fontFamily=Helvetica;fontSize=9;fontColor=#67AB9F;" parent="dCYjzD_zUEwOEs_KfjNQ-3" source="FTdMu0rv-jqPg10kDiAU-95" edge="1">
          <mxGeometry relative="1" as="geometry">
            <mxPoint x="309.99999999999955" y="281" as="targetPoint" />
            <Array as="points">
              <mxPoint x="280" y="480" />
              <mxPoint x="280" y="281" />
            </Array>
          </mxGeometry>
        </mxCell>
        <mxCell id="FTdMu0rv-jqPg10kDiAU-95" value="Monthly work(manual)" style="rounded=1;arcSize=10;dashed=1;fillColor=none;gradientColor=none;dashPattern=8 3 1 3;strokeWidth=2;labelBackgroundColor=none;fontFamily=Helvetica;fontSize=14;verticalAlign=top;align=center;fontColor=#67AB9F;fontStyle=1;strokeColor=#67AB9F;" parent="dCYjzD_zUEwOEs_KfjNQ-3" vertex="1">
          <mxGeometry y="420" width="250" height="120" as="geometry" />
        </mxCell>
        <mxCell id="FTdMu0rv-jqPg10kDiAU-103" value="" style="sketch=0;outlineConnect=0;fontColor=#232F3E;gradientColor=none;fillColor=#067F68;strokeColor=none;dashed=0;verticalLabelPosition=bottom;verticalAlign=top;align=center;html=1;fontSize=12;fontStyle=0;aspect=fixed;pointerEvents=1;shape=mxgraph.aws4.sagemaker_model;labelBackgroundColor=none;fontFamily=Helvetica;" parent="dCYjzD_zUEwOEs_KfjNQ-3" vertex="1">
          <mxGeometry x="169" y="260" width="40" height="40" as="geometry" />
        </mxCell>
        <mxCell id="FTdMu0rv-jqPg10kDiAU-144" style="edgeStyle=orthogonalEdgeStyle;rounded=0;orthogonalLoop=1;jettySize=auto;html=1;fontFamily=Helvetica;fontSize=9;fontColor=#67AB9F;" parent="dCYjzD_zUEwOEs_KfjNQ-3" source="FTdMu0rv-jqPg10kDiAU-104" target="FTdMu0rv-jqPg10kDiAU-103" edge="1">
          <mxGeometry relative="1" as="geometry" />
        </mxCell>
        <mxCell id="pEg31mfBv90CwenNYa6Y-8" value="Min,Max,Avg" style="edgeLabel;html=1;align=center;verticalAlign=middle;resizable=0;points=[];fontSize=9;" vertex="1" connectable="0" parent="FTdMu0rv-jqPg10kDiAU-144">
          <mxGeometry x="-0.1432" y="1" relative="1" as="geometry">
            <mxPoint as="offset" />
          </mxGeometry>
        </mxCell>
        <mxCell id="FTdMu0rv-jqPg10kDiAU-104" value="" style="sketch=0;outlineConnect=0;fontColor=#232F3E;gradientColor=none;fillColor=#067F68;strokeColor=none;dashed=0;verticalLabelPosition=bottom;verticalAlign=top;align=center;html=1;fontSize=12;fontStyle=0;aspect=fixed;pointerEvents=1;shape=mxgraph.aws4.sagemaker_train;labelBackgroundColor=none;fontFamily=Helvetica;" parent="dCYjzD_zUEwOEs_KfjNQ-3" vertex="1">
          <mxGeometry x="41" y="260" width="48" height="40" as="geometry" />
        </mxCell>
        <mxCell id="FTdMu0rv-jqPg10kDiAU-145" style="edgeStyle=orthogonalEdgeStyle;rounded=0;orthogonalLoop=1;jettySize=auto;html=1;fontFamily=Helvetica;fontSize=9;fontColor=#67AB9F;" parent="dCYjzD_zUEwOEs_KfjNQ-3" source="FTdMu0rv-jqPg10kDiAU-105" target="FTdMu0rv-jqPg10kDiAU-106" edge="1">
          <mxGeometry relative="1" as="geometry" />
        </mxCell>
        <mxCell id="pEg31mfBv90CwenNYa6Y-10" value="Min,Max,Avg" style="edgeLabel;html=1;align=center;verticalAlign=middle;resizable=0;points=[];fontSize=9;" vertex="1" connectable="0" parent="FTdMu0rv-jqPg10kDiAU-145">
          <mxGeometry x="-0.1932" y="1" relative="1" as="geometry">
            <mxPoint x="2" as="offset" />
          </mxGeometry>
        </mxCell>
        <mxCell id="FTdMu0rv-jqPg10kDiAU-105" value="" style="sketch=0;outlineConnect=0;fontColor=#232F3E;gradientColor=none;fillColor=#067F68;strokeColor=none;dashed=0;verticalLabelPosition=bottom;verticalAlign=top;align=center;html=1;fontSize=12;fontStyle=0;aspect=fixed;pointerEvents=1;shape=mxgraph.aws4.sagemaker_train;labelBackgroundColor=none;fontFamily=Helvetica;" parent="dCYjzD_zUEwOEs_KfjNQ-3" vertex="1">
          <mxGeometry x="41" y="315" width="48" height="40" as="geometry" />
        </mxCell>
        <mxCell id="FTdMu0rv-jqPg10kDiAU-106" value="" style="sketch=0;outlineConnect=0;fontColor=#232F3E;gradientColor=none;fillColor=#067F68;strokeColor=none;dashed=0;verticalLabelPosition=bottom;verticalAlign=top;align=center;html=1;fontSize=12;fontStyle=0;aspect=fixed;pointerEvents=1;shape=mxgraph.aws4.sagemaker_model;labelBackgroundColor=none;fontFamily=Helvetica;" parent="dCYjzD_zUEwOEs_KfjNQ-3" vertex="1">
          <mxGeometry x="169" y="315" width="40" height="40" as="geometry" />
        </mxCell>
        <mxCell id="FTdMu0rv-jqPg10kDiAU-107" value="" style="sketch=0;outlineConnect=0;fontColor=#232F3E;gradientColor=none;fillColor=#067F68;strokeColor=none;dashed=0;verticalLabelPosition=bottom;verticalAlign=top;align=center;html=1;fontSize=12;fontStyle=0;aspect=fixed;pointerEvents=1;shape=mxgraph.aws4.sagemaker_model;labelBackgroundColor=none;fontFamily=Helvetica;" parent="dCYjzD_zUEwOEs_KfjNQ-3" vertex="1">
          <mxGeometry x="169" y="370" width="40" height="40" as="geometry" />
        </mxCell>
        <mxCell id="FTdMu0rv-jqPg10kDiAU-146" style="edgeStyle=orthogonalEdgeStyle;rounded=0;orthogonalLoop=1;jettySize=auto;html=1;fontFamily=Helvetica;fontSize=9;fontColor=#67AB9F;" parent="dCYjzD_zUEwOEs_KfjNQ-3" source="FTdMu0rv-jqPg10kDiAU-108" target="FTdMu0rv-jqPg10kDiAU-107" edge="1">
          <mxGeometry relative="1" as="geometry" />
        </mxCell>
        <mxCell id="pEg31mfBv90CwenNYa6Y-9" value="Min,Max,Avg" style="edgeLabel;html=1;align=center;verticalAlign=middle;resizable=0;points=[];fontSize=9;" vertex="1" connectable="0" parent="FTdMu0rv-jqPg10kDiAU-146">
          <mxGeometry x="-0.11" relative="1" as="geometry">
            <mxPoint as="offset" />
          </mxGeometry>
        </mxCell>
        <mxCell id="FTdMu0rv-jqPg10kDiAU-108" value="" style="sketch=0;outlineConnect=0;fontColor=#232F3E;gradientColor=none;fillColor=#067F68;strokeColor=none;dashed=0;verticalLabelPosition=bottom;verticalAlign=top;align=center;html=1;fontSize=12;fontStyle=0;aspect=fixed;pointerEvents=1;shape=mxgraph.aws4.sagemaker_train;labelBackgroundColor=none;fontFamily=Helvetica;" parent="dCYjzD_zUEwOEs_KfjNQ-3" vertex="1">
          <mxGeometry x="41" y="370" width="48" height="40" as="geometry" />
        </mxCell>
        <mxCell id="FTdMu0rv-jqPg10kDiAU-148" style="edgeStyle=orthogonalEdgeStyle;rounded=0;orthogonalLoop=1;jettySize=auto;html=1;fontFamily=Helvetica;fontSize=9;fontColor=#67AB9F;" parent="dCYjzD_zUEwOEs_KfjNQ-3" source="FTdMu0rv-jqPg10kDiAU-109" target="FTdMu0rv-jqPg10kDiAU-112" edge="1">
          <mxGeometry relative="1" as="geometry" />
        </mxCell>
        <mxCell id="FTdMu0rv-jqPg10kDiAU-109" value="" style="sketch=0;outlineConnect=0;fontColor=#232F3E;gradientColor=none;fillColor=#067F68;strokeColor=none;dashed=0;verticalLabelPosition=bottom;verticalAlign=top;align=center;html=1;fontSize=12;fontStyle=0;aspect=fixed;pointerEvents=1;shape=mxgraph.aws4.sagemaker_train;labelBackgroundColor=none;fontFamily=Helvetica;" parent="dCYjzD_zUEwOEs_KfjNQ-3" vertex="1">
          <mxGeometry x="41" y="490" width="48" height="40" as="geometry" />
        </mxCell>
        <mxCell id="FTdMu0rv-jqPg10kDiAU-147" style="edgeStyle=orthogonalEdgeStyle;rounded=0;orthogonalLoop=1;jettySize=auto;html=1;fontFamily=Helvetica;fontSize=9;fontColor=#67AB9F;" parent="dCYjzD_zUEwOEs_KfjNQ-3" source="FTdMu0rv-jqPg10kDiAU-110" target="FTdMu0rv-jqPg10kDiAU-111" edge="1">
          <mxGeometry relative="1" as="geometry" />
        </mxCell>
        <mxCell id="FTdMu0rv-jqPg10kDiAU-110" value="" style="sketch=0;outlineConnect=0;fontColor=#232F3E;gradientColor=none;fillColor=#067F68;strokeColor=none;dashed=0;verticalLabelPosition=bottom;verticalAlign=top;align=center;html=1;fontSize=12;fontStyle=0;aspect=fixed;pointerEvents=1;shape=mxgraph.aws4.sagemaker_train;labelBackgroundColor=none;fontFamily=Helvetica;" parent="dCYjzD_zUEwOEs_KfjNQ-3" vertex="1">
          <mxGeometry x="41" y="440" width="48" height="40" as="geometry" />
        </mxCell>
        <mxCell id="FTdMu0rv-jqPg10kDiAU-111" value="" style="sketch=0;outlineConnect=0;fontColor=#232F3E;gradientColor=none;fillColor=#067F68;strokeColor=none;dashed=0;verticalLabelPosition=bottom;verticalAlign=top;align=center;html=1;fontSize=12;fontStyle=0;aspect=fixed;pointerEvents=1;shape=mxgraph.aws4.sagemaker_model;labelBackgroundColor=none;fontFamily=Helvetica;" parent="dCYjzD_zUEwOEs_KfjNQ-3" vertex="1">
          <mxGeometry x="169" y="440" width="40" height="40" as="geometry" />
        </mxCell>
        <mxCell id="FTdMu0rv-jqPg10kDiAU-112" value="" style="sketch=0;outlineConnect=0;fontColor=#232F3E;gradientColor=none;fillColor=#067F68;strokeColor=none;dashed=0;verticalLabelPosition=bottom;verticalAlign=top;align=center;html=1;fontSize=12;fontStyle=0;aspect=fixed;pointerEvents=1;shape=mxgraph.aws4.sagemaker_model;labelBackgroundColor=none;fontFamily=Helvetica;" parent="dCYjzD_zUEwOEs_KfjNQ-3" vertex="1">
          <mxGeometry x="169" y="490" width="40" height="40" as="geometry" />
        </mxCell>
        <mxCell id="FTdMu0rv-jqPg10kDiAU-97" value="" style="sketch=0;outlineConnect=0;fontColor=#232F3E;gradientColor=none;fillColor=#067F68;strokeColor=none;dashed=0;verticalLabelPosition=bottom;verticalAlign=top;align=center;html=1;fontSize=12;fontStyle=0;aspect=fixed;pointerEvents=1;shape=mxgraph.aws4.sagemaker_model;labelBackgroundColor=none;fontFamily=Helvetica;" parent="dCYjzD_zUEwOEs_KfjNQ-3" vertex="1">
          <mxGeometry x="169" y="70" width="40" height="40" as="geometry" />
        </mxCell>
        <mxCell id="FTdMu0rv-jqPg10kDiAU-141" style="edgeStyle=orthogonalEdgeStyle;rounded=0;orthogonalLoop=1;jettySize=auto;html=1;fontFamily=Helvetica;fontSize=9;fontColor=#67AB9F;" parent="dCYjzD_zUEwOEs_KfjNQ-3" source="FTdMu0rv-jqPg10kDiAU-98" target="FTdMu0rv-jqPg10kDiAU-97" edge="1">
          <mxGeometry relative="1" as="geometry" />
        </mxCell>
        <mxCell id="FTdMu0rv-jqPg10kDiAU-98" value="&lt;font style=&quot;font-size: 9px;&quot;&gt;-&lt;/font&gt;" style="sketch=0;outlineConnect=0;fontColor=#232F3E;gradientColor=none;fillColor=#067F68;strokeColor=none;dashed=0;verticalLabelPosition=bottom;verticalAlign=top;align=center;html=1;fontSize=12;fontStyle=0;aspect=fixed;pointerEvents=1;shape=mxgraph.aws4.sagemaker_train;labelBackgroundColor=none;fontFamily=Helvetica;" parent="dCYjzD_zUEwOEs_KfjNQ-3" vertex="1">
          <mxGeometry x="41" y="70" width="48" height="40" as="geometry" />
        </mxCell>
        <mxCell id="FTdMu0rv-jqPg10kDiAU-99" value="" style="sketch=0;outlineConnect=0;fontColor=#232F3E;gradientColor=none;fillColor=#067F68;strokeColor=none;dashed=0;verticalLabelPosition=bottom;verticalAlign=top;align=center;html=1;fontSize=12;fontStyle=0;aspect=fixed;pointerEvents=1;shape=mxgraph.aws4.sagemaker_model;labelBackgroundColor=none;fontFamily=Helvetica;" parent="dCYjzD_zUEwOEs_KfjNQ-3" vertex="1">
          <mxGeometry x="169" y="125" width="40" height="40" as="geometry" />
        </mxCell>
        <mxCell id="FTdMu0rv-jqPg10kDiAU-142" style="edgeStyle=orthogonalEdgeStyle;rounded=0;orthogonalLoop=1;jettySize=auto;html=1;fontFamily=Helvetica;fontSize=9;fontColor=#67AB9F;" parent="dCYjzD_zUEwOEs_KfjNQ-3" source="FTdMu0rv-jqPg10kDiAU-100" target="FTdMu0rv-jqPg10kDiAU-99" edge="1">
          <mxGeometry relative="1" as="geometry" />
        </mxCell>
        <mxCell id="pEg31mfBv90CwenNYa6Y-6" value="&lt;font style=&quot;font-size: 9px;&quot;&gt;Min,Max,Avg&lt;/font&gt;" style="edgeLabel;html=1;align=center;verticalAlign=middle;resizable=0;points=[];" vertex="1" connectable="0" parent="FTdMu0rv-jqPg10kDiAU-142">
          <mxGeometry x="-0.3096" y="4" relative="1" as="geometry">
            <mxPoint x="8" y="4" as="offset" />
          </mxGeometry>
        </mxCell>
        <mxCell id="FTdMu0rv-jqPg10kDiAU-100" value="" style="sketch=0;outlineConnect=0;fontColor=#232F3E;gradientColor=none;fillColor=#067F68;strokeColor=none;dashed=0;verticalLabelPosition=bottom;verticalAlign=top;align=center;html=1;fontSize=12;fontStyle=0;aspect=fixed;pointerEvents=1;shape=mxgraph.aws4.sagemaker_train;labelBackgroundColor=none;fontFamily=Helvetica;" parent="dCYjzD_zUEwOEs_KfjNQ-3" vertex="1">
          <mxGeometry x="41" y="125" width="48" height="40" as="geometry" />
        </mxCell>
        <mxCell id="FTdMu0rv-jqPg10kDiAU-101" value="" style="sketch=0;outlineConnect=0;fontColor=#232F3E;gradientColor=none;fillColor=#067F68;strokeColor=none;dashed=0;verticalLabelPosition=bottom;verticalAlign=top;align=center;html=1;fontSize=12;fontStyle=0;aspect=fixed;pointerEvents=1;shape=mxgraph.aws4.sagemaker_model;labelBackgroundColor=none;fontFamily=Helvetica;" parent="dCYjzD_zUEwOEs_KfjNQ-3" vertex="1">
          <mxGeometry x="169" y="180" width="40" height="40" as="geometry" />
        </mxCell>
        <mxCell id="FTdMu0rv-jqPg10kDiAU-143" style="edgeStyle=orthogonalEdgeStyle;rounded=0;orthogonalLoop=1;jettySize=auto;html=1;fontFamily=Helvetica;fontSize=9;fontColor=#67AB9F;" parent="dCYjzD_zUEwOEs_KfjNQ-3" source="FTdMu0rv-jqPg10kDiAU-102" target="FTdMu0rv-jqPg10kDiAU-101" edge="1">
          <mxGeometry relative="1" as="geometry" />
        </mxCell>
        <mxCell id="pEg31mfBv90CwenNYa6Y-7" value="Min,Max,Avg" style="edgeLabel;html=1;align=center;verticalAlign=middle;resizable=0;points=[];fontSize=9;" vertex="1" connectable="0" parent="FTdMu0rv-jqPg10kDiAU-143">
          <mxGeometry x="-0.1266" y="-1" relative="1" as="geometry">
            <mxPoint x="1" y="-1" as="offset" />
          </mxGeometry>
        </mxCell>
        <mxCell id="FTdMu0rv-jqPg10kDiAU-102" value="" style="sketch=0;outlineConnect=0;fontColor=#232F3E;gradientColor=none;fillColor=#067F68;strokeColor=none;dashed=0;verticalLabelPosition=bottom;verticalAlign=top;align=center;html=1;fontSize=12;fontStyle=0;aspect=fixed;pointerEvents=1;shape=mxgraph.aws4.sagemaker_train;labelBackgroundColor=none;fontFamily=Helvetica;" parent="dCYjzD_zUEwOEs_KfjNQ-3" vertex="1">
          <mxGeometry x="41" y="180" width="48" height="40" as="geometry" />
        </mxCell>
        <mxCell id="FTdMu0rv-jqPg10kDiAU-128" value="D+1" style="text;html=1;strokeColor=none;fillColor=none;align=center;verticalAlign=middle;whiteSpace=wrap;rounded=0;fontStyle=1;fontSize=6;fontFamily=Helvetica;" parent="dCYjzD_zUEwOEs_KfjNQ-3" vertex="1">
          <mxGeometry x="27" y="100" width="60" height="30" as="geometry" />
        </mxCell>
        <mxCell id="FTdMu0rv-jqPg10kDiAU-129" value="D+5" style="text;html=1;strokeColor=none;fillColor=none;align=center;verticalAlign=middle;whiteSpace=wrap;rounded=0;fontStyle=1;fontSize=6;fontFamily=Helvetica;" parent="dCYjzD_zUEwOEs_KfjNQ-3" vertex="1">
          <mxGeometry x="27" y="156" width="60" height="30" as="geometry" />
        </mxCell>
        <mxCell id="FTdMu0rv-jqPg10kDiAU-130" value="D+10" style="text;html=1;strokeColor=none;fillColor=none;align=center;verticalAlign=middle;whiteSpace=wrap;rounded=0;fontStyle=1;fontSize=6;fontFamily=Helvetica;" parent="dCYjzD_zUEwOEs_KfjNQ-3" vertex="1">
          <mxGeometry x="27" y="210" width="60" height="30" as="geometry" />
        </mxCell>
        <mxCell id="FTdMu0rv-jqPg10kDiAU-131" value="M+1" style="text;html=1;strokeColor=none;fillColor=none;align=center;verticalAlign=middle;whiteSpace=wrap;rounded=0;fontStyle=1;fontSize=6;fontFamily=Helvetica;" parent="dCYjzD_zUEwOEs_KfjNQ-3" vertex="1">
          <mxGeometry x="27" y="290" width="60" height="30" as="geometry" />
        </mxCell>
        <mxCell id="FTdMu0rv-jqPg10kDiAU-132" value="M+2" style="text;html=1;strokeColor=none;fillColor=none;align=center;verticalAlign=middle;whiteSpace=wrap;rounded=0;fontStyle=1;fontSize=6;fontFamily=Helvetica;" parent="dCYjzD_zUEwOEs_KfjNQ-3" vertex="1">
          <mxGeometry x="27" y="346" width="60" height="30" as="geometry" />
        </mxCell>
        <mxCell id="FTdMu0rv-jqPg10kDiAU-133" value="M+3" style="text;html=1;strokeColor=none;fillColor=none;align=center;verticalAlign=middle;whiteSpace=wrap;rounded=0;fontStyle=1;fontSize=6;fontFamily=Helvetica;" parent="dCYjzD_zUEwOEs_KfjNQ-3" vertex="1">
          <mxGeometry x="27" y="400" width="60" height="30" as="geometry" />
        </mxCell>
        <mxCell id="FTdMu0rv-jqPg10kDiAU-134" value="M+12" style="text;html=1;strokeColor=none;fillColor=none;align=center;verticalAlign=middle;whiteSpace=wrap;rounded=0;fontStyle=1;fontSize=6;fontFamily=Helvetica;" parent="dCYjzD_zUEwOEs_KfjNQ-3" vertex="1">
          <mxGeometry x="27" y="519" width="60" height="30" as="geometry" />
        </mxCell>
        <mxCell id="FTdMu0rv-jqPg10kDiAU-135" value="M+6" style="text;html=1;strokeColor=none;fillColor=none;align=center;verticalAlign=middle;whiteSpace=wrap;rounded=0;fontStyle=1;fontSize=6;fontFamily=Helvetica;" parent="dCYjzD_zUEwOEs_KfjNQ-3" vertex="1">
          <mxGeometry x="27" y="470" width="60" height="30" as="geometry" />
        </mxCell>
        <mxCell id="gQa-60bPWqaGcjAUz3gM-14" value="6" style="rounded=1;whiteSpace=wrap;html=1;fillColor=#007CBD;strokeColor=none;fontColor=#FFFFFF;fontStyle=1;fontSize=22;labelBackgroundColor=none;" parent="dCYjzD_zUEwOEs_KfjNQ-3" vertex="1">
          <mxGeometry x="1" y="40" width="40" height="38" as="geometry" />
        </mxCell>
        <mxCell id="FTdMu0rv-jqPg10kDiAU-155" value="x 17" style="text;html=1;strokeColor=none;fillColor=none;align=center;verticalAlign=middle;whiteSpace=wrap;rounded=0;labelBackgroundColor=none;fontFamily=Helvetica;fontSize=9;fontColor=#67AB9F;" parent="dCYjzD_zUEwOEs_KfjNQ-3" vertex="1">
          <mxGeometry x="200" y="75" width="50" height="30" as="geometry" />
        </mxCell>
        <mxCell id="FTdMu0rv-jqPg10kDiAU-156" value="x 17" style="text;html=1;strokeColor=none;fillColor=none;align=center;verticalAlign=middle;whiteSpace=wrap;rounded=0;labelBackgroundColor=none;fontFamily=Helvetica;fontSize=9;fontColor=#67AB9F;" parent="dCYjzD_zUEwOEs_KfjNQ-3" vertex="1">
          <mxGeometry x="200" y="130" width="50" height="30" as="geometry" />
        </mxCell>
        <mxCell id="FTdMu0rv-jqPg10kDiAU-167" value="x 17" style="text;html=1;strokeColor=none;fillColor=none;align=center;verticalAlign=middle;whiteSpace=wrap;rounded=0;labelBackgroundColor=none;fontFamily=Helvetica;fontSize=9;fontColor=#67AB9F;" parent="dCYjzD_zUEwOEs_KfjNQ-3" vertex="1">
          <mxGeometry x="200" y="186" width="50" height="30" as="geometry" />
        </mxCell>
        <mxCell id="FTdMu0rv-jqPg10kDiAU-168" value="x 17" style="text;html=1;strokeColor=none;fillColor=none;align=center;verticalAlign=middle;whiteSpace=wrap;rounded=0;labelBackgroundColor=none;fontFamily=Helvetica;fontSize=9;fontColor=#67AB9F;" parent="dCYjzD_zUEwOEs_KfjNQ-3" vertex="1">
          <mxGeometry x="200" y="375" width="50" height="30" as="geometry" />
        </mxCell>
        <mxCell id="FTdMu0rv-jqPg10kDiAU-169" value="x 17" style="text;html=1;strokeColor=none;fillColor=none;align=center;verticalAlign=middle;whiteSpace=wrap;rounded=0;labelBackgroundColor=none;fontFamily=Helvetica;fontSize=9;fontColor=#67AB9F;" parent="dCYjzD_zUEwOEs_KfjNQ-3" vertex="1">
          <mxGeometry x="200" y="321" width="50" height="30" as="geometry" />
        </mxCell>
        <mxCell id="FTdMu0rv-jqPg10kDiAU-170" value="x 17" style="text;html=1;strokeColor=none;fillColor=none;align=center;verticalAlign=middle;whiteSpace=wrap;rounded=0;labelBackgroundColor=none;fontFamily=Helvetica;fontSize=9;fontColor=#67AB9F;" parent="dCYjzD_zUEwOEs_KfjNQ-3" vertex="1">
          <mxGeometry x="200" y="263" width="50" height="30" as="geometry" />
        </mxCell>
        <mxCell id="FTdMu0rv-jqPg10kDiAU-172" value="x 17" style="text;html=1;strokeColor=none;fillColor=none;align=center;verticalAlign=middle;whiteSpace=wrap;rounded=0;labelBackgroundColor=none;fontFamily=Helvetica;fontSize=9;fontColor=#67AB9F;" parent="dCYjzD_zUEwOEs_KfjNQ-3" vertex="1">
          <mxGeometry x="200" y="495" width="50" height="30" as="geometry" />
        </mxCell>
        <mxCell id="FTdMu0rv-jqPg10kDiAU-173" value="x 17" style="text;html=1;strokeColor=none;fillColor=none;align=center;verticalAlign=middle;whiteSpace=wrap;rounded=0;labelBackgroundColor=none;fontFamily=Helvetica;fontSize=9;fontColor=#67AB9F;" parent="dCYjzD_zUEwOEs_KfjNQ-3" vertex="1">
          <mxGeometry x="200" y="442" width="50" height="30" as="geometry" />
        </mxCell>
        <mxCell id="SOORIEfSWFdYIwNkLnd--15" value="Bulit-In Container" style="text;html=1;strokeColor=none;fillColor=none;align=center;verticalAlign=middle;whiteSpace=wrap;rounded=0;fontSize=10;" parent="dCYjzD_zUEwOEs_KfjNQ-3" vertex="1">
          <mxGeometry x="300" y="6" width="60" height="30" as="geometry" />
        </mxCell>
        <mxCell id="FTdMu0rv-jqPg10kDiAU-80" value="AWS&lt;br&gt;Glue" style="sketch=0;points=[[0,0,0],[0.25,0,0],[0.5,0,0],[0.75,0,0],[1,0,0],[0,1,0],[0.25,1,0],[0.5,1,0],[0.75,1,0],[1,1,0],[0,0.25,0],[0,0.5,0],[0,0.75,0],[1,0.25,0],[1,0.5,0],[1,0.75,0]];outlineConnect=0;fontColor=#232F3E;gradientColor=#945DF2;gradientDirection=north;fillColor=#5A30B5;strokeColor=#ffffff;dashed=0;verticalLabelPosition=bottom;verticalAlign=top;align=center;html=1;fontSize=12;fontStyle=0;aspect=fixed;shape=mxgraph.aws4.resourceIcon;resIcon=mxgraph.aws4.glue;labelBackgroundColor=none;fontFamily=Helvetica;" parent="1" vertex="1">
          <mxGeometry x="839" y="310.5" width="78" height="78" as="geometry" />
        </mxCell>
        <mxCell id="FTdMu0rv-jqPg10kDiAU-113" style="edgeStyle=orthogonalEdgeStyle;rounded=0;orthogonalLoop=1;jettySize=auto;html=1;fontFamily=Helvetica;fontSize=14;fontColor=#67AB9F;entryX=-0.021;entryY=0.5;entryDx=0;entryDy=0;entryPerimeter=0;" parent="1" source="1dBTJliTiQG94aDny_BC-58" target="FTdMu0rv-jqPg10kDiAU-98" edge="1">
          <mxGeometry relative="1" as="geometry">
            <mxPoint x="1300" y="250" as="targetPoint" />
          </mxGeometry>
        </mxCell>
        <mxCell id="FTdMu0rv-jqPg10kDiAU-116" style="edgeStyle=orthogonalEdgeStyle;rounded=0;orthogonalLoop=1;jettySize=auto;html=1;fontFamily=Helvetica;fontSize=14;fontColor=#67AB9F;entryX=-0.021;entryY=0.5;entryDx=0;entryDy=0;entryPerimeter=0;" parent="1" source="1dBTJliTiQG94aDny_BC-58" target="FTdMu0rv-jqPg10kDiAU-100" edge="1">
          <mxGeometry relative="1" as="geometry" />
        </mxCell>
        <mxCell id="FTdMu0rv-jqPg10kDiAU-121" style="edgeStyle=orthogonalEdgeStyle;rounded=0;orthogonalLoop=1;jettySize=auto;html=1;fontFamily=Helvetica;fontSize=14;fontColor=#67AB9F;" parent="1" edge="1">
          <mxGeometry relative="1" as="geometry">
            <mxPoint x="1300" y="460" as="sourcePoint" />
            <mxPoint x="1352" y="380" as="targetPoint" />
            <Array as="points">
              <mxPoint x="1325" y="460" />
              <mxPoint x="1325" y="380" />
            </Array>
          </mxGeometry>
        </mxCell>
        <mxCell id="FTdMu0rv-jqPg10kDiAU-122" style="edgeStyle=orthogonalEdgeStyle;rounded=0;orthogonalLoop=1;jettySize=auto;html=1;fontFamily=Helvetica;fontSize=14;fontColor=#67AB9F;" parent="1" source="1dBTJliTiQG94aDny_BC-58" target="FTdMu0rv-jqPg10kDiAU-104" edge="1">
          <mxGeometry relative="1" as="geometry" />
        </mxCell>
        <mxCell id="FTdMu0rv-jqPg10kDiAU-123" style="edgeStyle=orthogonalEdgeStyle;rounded=0;orthogonalLoop=1;jettySize=auto;html=1;fontFamily=Helvetica;fontSize=14;fontColor=#67AB9F;" parent="1" source="1dBTJliTiQG94aDny_BC-58" target="FTdMu0rv-jqPg10kDiAU-105" edge="1">
          <mxGeometry relative="1" as="geometry" />
        </mxCell>
        <mxCell id="FTdMu0rv-jqPg10kDiAU-124" style="edgeStyle=orthogonalEdgeStyle;rounded=0;orthogonalLoop=1;jettySize=auto;html=1;fontFamily=Helvetica;fontSize=14;fontColor=#67AB9F;entryX=-0.021;entryY=0.5;entryDx=0;entryDy=0;entryPerimeter=0;" parent="1" source="1dBTJliTiQG94aDny_BC-58" target="FTdMu0rv-jqPg10kDiAU-110" edge="1">
          <mxGeometry relative="1" as="geometry" />
        </mxCell>
        <mxCell id="FTdMu0rv-jqPg10kDiAU-125" style="edgeStyle=orthogonalEdgeStyle;rounded=0;orthogonalLoop=1;jettySize=auto;html=1;entryX=-0.021;entryY=0.5;entryDx=0;entryDy=0;entryPerimeter=0;fontFamily=Helvetica;fontSize=14;fontColor=#67AB9F;" parent="1" source="1dBTJliTiQG94aDny_BC-58" target="FTdMu0rv-jqPg10kDiAU-108" edge="1">
          <mxGeometry relative="1" as="geometry" />
        </mxCell>
        <mxCell id="FTdMu0rv-jqPg10kDiAU-126" style="edgeStyle=orthogonalEdgeStyle;rounded=0;orthogonalLoop=1;jettySize=auto;html=1;entryX=-0.009;entryY=0.441;entryDx=0;entryDy=0;entryPerimeter=0;fontFamily=Helvetica;fontSize=14;fontColor=#67AB9F;" parent="1" source="1dBTJliTiQG94aDny_BC-58" target="FTdMu0rv-jqPg10kDiAU-109" edge="1">
          <mxGeometry relative="1" as="geometry" />
        </mxCell>
      </root>
    </mxGraphModel>
  </diagram>
  <diagram id="ji4KComlpWZDG8OQrK-k" name="To-Be">
    <mxGraphModel dx="4331" dy="3494" grid="1" gridSize="10" guides="1" tooltips="1" connect="1" arrows="1" fold="1" page="1" pageScale="1" pageWidth="827" pageHeight="1169" math="0" shadow="0">
      <root>
        <mxCell id="0" />
        <mxCell id="1" parent="0" />
        <mxCell id="fahZCgwW7RxsYPd1qHfA-9" value="Amazon S3" style="outlineConnect=0;fontColor=#232F3E;gradientColor=#60A337;gradientDirection=north;fillColor=#277116;strokeColor=#ffffff;dashed=0;verticalLabelPosition=bottom;verticalAlign=top;align=center;html=1;fontSize=12;fontStyle=0;aspect=fixed;shape=mxgraph.aws4.resourceIcon;resIcon=mxgraph.aws4.s3;labelBackgroundColor=none;" vertex="1" parent="1">
          <mxGeometry x="486" y="-228.5" width="78" height="78" as="geometry" />
        </mxCell>
        <mxCell id="fahZCgwW7RxsYPd1qHfA-10" value="Amazon Cognito" style="outlineConnect=0;fontColor=#232F3E;gradientColor=#F54749;gradientDirection=north;fillColor=#C7131F;strokeColor=#ffffff;dashed=0;verticalLabelPosition=bottom;verticalAlign=top;align=center;html=1;fontSize=12;fontStyle=0;aspect=fixed;shape=mxgraph.aws4.resourceIcon;resIcon=mxgraph.aws4.cognito;labelBackgroundColor=none;" vertex="1" parent="1">
          <mxGeometry x="310" y="148.5" width="78" height="78" as="geometry" />
        </mxCell>
        <mxCell id="fahZCgwW7RxsYPd1qHfA-11" value="Users&lt;br&gt;" style="outlineConnect=0;fontColor=#232F3E;gradientColor=none;fillColor=#232F3E;strokeColor=none;dashed=0;verticalLabelPosition=bottom;verticalAlign=top;align=center;html=1;fontSize=12;fontStyle=0;aspect=fixed;pointerEvents=1;shape=mxgraph.aws4.users;labelBackgroundColor=none;" vertex="1" parent="1">
          <mxGeometry x="697" y="309.9999999999999" width="78" height="78" as="geometry" />
        </mxCell>
        <mxCell id="fahZCgwW7RxsYPd1qHfA-12" value="User" style="outlineConnect=0;fontColor=#232F3E;gradientColor=none;fillColor=#232F3E;strokeColor=none;dashed=0;verticalLabelPosition=bottom;verticalAlign=top;align=center;html=1;fontSize=12;fontStyle=0;aspect=fixed;pointerEvents=1;shape=mxgraph.aws4.user;labelBackgroundColor=none;" vertex="1" parent="1">
          <mxGeometry x="1441.5000000000002" y="-260" width="78" height="78" as="geometry" />
        </mxCell>
        <mxCell id="fahZCgwW7RxsYPd1qHfA-13" value="" style="shape=image;html=1;verticalAlign=top;verticalLabelPosition=bottom;labelBackgroundColor=#ffffff;imageAspect=0;aspect=fixed;image=https://cdn4.iconfinder.com/data/icons/ionicons/512/icon-social-github-128.png" vertex="1" parent="1">
          <mxGeometry x="626" y="552.5" width="128" height="128" as="geometry" />
        </mxCell>
        <mxCell id="fahZCgwW7RxsYPd1qHfA-14" value="AWS CodePipeline" style="outlineConnect=0;dashed=0;verticalLabelPosition=bottom;verticalAlign=top;align=center;html=1;shape=mxgraph.aws3.codepipeline;fillColor=#759C3E;gradientColor=none;" vertex="1" parent="1">
          <mxGeometry x="30" y="402.5" width="67.5" height="81" as="geometry" />
        </mxCell>
        <mxCell id="fahZCgwW7RxsYPd1qHfA-15" value="AWS CodeCommit" style="outlineConnect=0;dashed=0;verticalLabelPosition=bottom;verticalAlign=top;align=center;html=1;shape=mxgraph.aws3.codecommit;fillColor=#759C3E;gradientColor=none;" vertex="1" parent="1">
          <mxGeometry x="60" y="268" width="76.5" height="93" as="geometry" />
        </mxCell>
        <mxCell id="fahZCgwW7RxsYPd1qHfA-16" value="AWS CodeDeploy" style="outlineConnect=0;dashed=0;verticalLabelPosition=bottom;verticalAlign=top;align=center;html=1;shape=mxgraph.aws3.codedeploy;fillColor=#759C3E;gradientColor=none;" vertex="1" parent="1">
          <mxGeometry x="261.5" y="471.5" width="67.5" height="81" as="geometry" />
        </mxCell>
        <mxCell id="GLimc1rp4X13bFgC48Ts-1" value="AWS SageMaker&lt;br&gt;Train" style="sketch=0;outlineConnect=0;fontColor=#232F3E;gradientColor=none;fillColor=#067F68;strokeColor=none;dashed=0;verticalLabelPosition=bottom;verticalAlign=top;align=center;html=1;fontSize=12;fontStyle=0;aspect=fixed;pointerEvents=1;shape=mxgraph.aws4.sagemaker_train;" vertex="1" parent="1">
          <mxGeometry x="1190" y="820" width="78" height="65" as="geometry" />
        </mxCell>
        <mxCell id="GLimc1rp4X13bFgC48Ts-2" value="AWS SageMaker&lt;br&gt;Notebook" style="sketch=0;outlineConnect=0;fontColor=#232F3E;gradientColor=none;fillColor=#067F68;strokeColor=none;dashed=0;verticalLabelPosition=bottom;verticalAlign=top;align=center;html=1;fontSize=12;fontStyle=0;aspect=fixed;pointerEvents=1;shape=mxgraph.aws4.sagemaker_notebook;" vertex="1" parent="1">
          <mxGeometry x="730" y="810" width="68" height="78" as="geometry" />
        </mxCell>
        <mxCell id="GLimc1rp4X13bFgC48Ts-3" value="" style="sketch=0;points=[[0,0,0],[0.25,0,0],[0.5,0,0],[0.75,0,0],[1,0,0],[0,1,0],[0.25,1,0],[0.5,1,0],[0.75,1,0],[1,1,0],[0,0.25,0],[0,0.5,0],[0,0.75,0],[1,0.25,0],[1,0.5,0],[1,0.75,0]];outlineConnect=0;fontColor=#232F3E;gradientColor=#4AB29A;gradientDirection=north;fillColor=#116D5B;strokeColor=#ffffff;dashed=0;verticalLabelPosition=bottom;verticalAlign=top;align=center;html=1;fontSize=12;fontStyle=0;aspect=fixed;shape=mxgraph.aws4.resourceIcon;resIcon=mxgraph.aws4.forecast;" vertex="1" parent="1">
          <mxGeometry x="998" y="780" width="78" height="78" as="geometry" />
        </mxCell>
      </root>
    </mxGraphModel>
  </diagram>
  <diagram id="O2DYypxAQ_tnDRAICw8M" name="PoC">
    <mxGraphModel dx="2382" dy="1279" grid="1" gridSize="10" guides="1" tooltips="1" connect="1" arrows="1" fold="1" page="1" pageScale="1" pageWidth="1169" pageHeight="827" math="0" shadow="0">
      <root>
        <mxCell id="0" />
        <mxCell id="1" parent="0" />
      </root>
    </mxGraphModel>
  </diagram>
</mxfile>
